<?xml version="1.0" encoding="UTF-8"?>
<svg version="1.1" xmlns="http://www.w3.org/2000/svg" width="360" height="360">
<path d="M0 0 C118.8 0 237.6 0 360 0 C360 118.8 360 237.6 360 360 C241.2 360 122.4 360 0 360 C0 241.2 0 122.4 0 0 Z " fill="#EFEFEF" transform="translate(0,0)"/>
<path d="M0 0 C118.8 0 237.6 0 360 0 C360 34.65 360 69.3 360 105 C355.05 105 350.1 105 345 105 C345 100.05 345 95.1 345 90 C343.63746094 90.165 342.27492188 90.33 340.87109375 90.5 C339.0601028 90.66890071 337.24889083 90.83544318 335.4375 91 C334.54224609 91.11472656 333.64699219 91.22945313 332.72460938 91.34765625 C329.94763156 91.57144201 327.73404215 91.55005841 325 91 C323.23504543 89.45935822 323.23504543 89.45935822 321.64659119 87.43469238 C318.1775214 83.19916283 314.47595488 79.34090504 310.59594727 75.48242188 C309.54102837 74.42728394 309.54102837 74.42728394 308.46479797 73.35083008 C306.16769954 71.05442155 303.86709262 68.7615634 301.56640625 66.46875 C299.96193412 64.86614533 298.3576844 63.26331796 296.75364685 61.66027832 C292.55227257 57.4627034 288.34790276 53.26814159 284.1428833 49.07421875 C279.84407892 44.78568424 275.54814021 40.4942812 271.25195312 36.203125 C262.83742372 27.79928735 254.41972414 19.39863286 246 11 C241.90964151 12.87286977 239.22652448 15.61966701 236.16796875 18.84765625 C235.02859309 20.02206512 233.88859974 21.19587498 232.74804688 22.36914062 C230.96402576 24.21504382 229.18506352 26.06506413 227.41674805 27.92602539 C225.70159992 29.72613146 223.96785827 31.50654261 222.23046875 33.28515625 C221.7104277 33.84243912 221.19038666 34.39972198 220.65458679 34.97389221 C216.96033487 38.71847344 214.22506391 39.76009243 209 40 C208.48050781 39.09636719 207.96101562 38.19273438 207.42578125 37.26171875 C206.7219774 36.06994423 206.01751535 34.87855824 205.3125 33.6875 C204.97283203 33.09259766 204.63316406 32.49769531 204.28320312 31.88476562 C202.00837003 28.07920371 200.11050789 25.73202409 196 24 C190.19981993 23.19421779 184.79651569 23.1805367 179.4375 25.625 C174.724225 30.2174218 172.74886789 33.29272735 172.5 39.9375 C172.73405028 45.20363135 173.06634059 49.26666584 177 53 C180.8681912 55.60279887 184.86080345 57.85881185 189 60 C188.76067739 66.62371354 186.48490096 69.3410846 181.77734375 73.80859375 C181.15726944 74.42017838 180.53719513 75.031763 179.89833069 75.66188049 C177.92507967 77.60168947 175.93196445 79.51953292 173.9375 81.4375 C172.59173024 82.75315871 171.24731288 84.07020228 169.90429688 85.38867188 C166.61831002 88.60869635 163.31435112 91.80918868 160 95 C162.47936883 100.82844198 167.48313987 104.89292125 171.875 109.3125 C172.78636719 110.25673828 173.69773438 111.20097656 174.63671875 112.17382812 C175.51714844 113.06134766 176.39757812 113.94886719 177.3046875 114.86328125 C178.10890137 115.68094971 178.91311523 116.49861816 179.74169922 117.34106445 C181.8227892 119.22113932 181.8227892 119.22113932 184.15673828 118.96166992 C186.38540467 117.98544064 186.38540467 117.98544064 188.1875 114.75 C191.31026427 110.20182981 194.71947883 107.67142547 200 106 C210.78260146 104.66679331 218.38764134 106.2224509 227.25 112.1875 C233.27347349 118.34787061 236.00727202 125.13075271 236.375 133.6875 C236.25835563 140.82401477 233.61282973 146.30852322 228.6640625 151.40625 C226.49438432 153.35006262 224.29653404 155.20880352 222 157 C223.20381448 159.49361571 224.45428722 161.68143083 226 164 C225 165 225 165 222.13256836 165.11352539 C220.88096924 165.10828857 219.62937012 165.10305176 218.33984375 165.09765625 C217.34314415 165.09553383 217.34314415 165.09553383 216.3263092 165.09336853 C214.19666101 165.08775518 212.06711661 165.07520054 209.9375 165.0625 C208.49674631 165.05748671 207.05599097 165.05292351 205.61523438 165.04882812 C202.07675042 165.03863076 198.53849187 165.0190583 195 165 C195 169.95 195 174.9 195 180 C190.05 180 185.1 180 180 180 C180 175.05 180 170.1 180 165 C175.05 165 170.1 165 165 165 C165 160.05 165 155.1 165 150 C160.05 150 155.1 150 150 150 C150 145.05 150 140.1 150 135 C145.05 135 140.1 135 135 135 C134.67 133.68 134.34 132.36 134 131 C133.34 131.33 132.68 131.66 132 132 C132.33 120.12 132.66 108.24 133 96 C118.09209155 96.06287618 103.18436669 96.13805402 88.27664661 96.23571491 C81.35461258 96.28066655 74.43262993 96.32008259 67.51049805 96.34643555 C60.83197324 96.37187666 54.15370775 96.41278548 47.475317 96.46318626 C44.92563402 96.47988891 42.37591148 96.49138196 39.82618141 96.49761391 C36.25863229 96.50721775 32.69167233 96.53523383 29.12426758 96.56762695 C28.06690903 96.56619186 27.00955048 96.56475677 25.92015076 96.5632782 C18.91754214 96.56188845 18.91754214 96.56188845 13 100 C11.15709362 103.01881777 10.74474211 105.29569473 10.7215271 108.80889893 C10.71036362 109.77361115 10.69920013 110.73832336 10.68769836 111.73226929 C10.68553818 112.78387238 10.68337799 113.83547546 10.68115234 114.91894531 C10.67110672 116.03143646 10.6610611 117.14392761 10.65071106 118.29013062 C10.6198058 121.96945679 10.60282329 125.64870996 10.5859375 129.328125 C10.56723179 131.87832267 10.54765883 134.42851411 10.5272522 136.97869873 C10.48111543 143.00633874 10.44372985 149.03397167 10.41057932 155.061692 C10.37234492 161.92507391 10.32293824 168.78836119 10.27259517 175.6516633 C10.16930265 189.76770533 10.08003356 203.88380832 10 218 C11.24612061 217.98428955 12.49224121 217.9685791 13.77612305 217.95239258 C18.40724198 217.89801927 23.03833278 217.86362289 27.66967773 217.83520508 C29.67265572 217.82013535 31.6756008 217.7996759 33.6784668 217.77368164 C36.56046681 217.73721873 39.44202984 217.72025539 42.32421875 217.70703125 C43.21711105 217.69154739 44.11000336 217.67606354 45.029953 217.66011047 C49.8752617 217.6588042 53.02544374 217.89274998 57 221 C56.51421457 224.12290635 56.0013988 226.99580359 55 230 C54.34460077 237.34906673 54.15964215 243.19157057 59 249 C63.5927356 252.47306191 68.18766814 253.62058812 73.8984375 253.31640625 C78.66313859 252.59904419 81.71376697 250.54897629 84.8125 247 C88.56461178 241.8542467 88.42329126 237.1569638 88 231 C87.35610218 228.99255385 86.69437747 226.99054876 86 225 C86.5 220.5 86.5 220.5 88 219 C89.41225046 218.9071274 90.82908934 218.88253228 92.24438477 218.88647461 C93.59567223 218.88658791 93.59567223 218.88658791 94.97425842 218.88670349 C95.95341721 218.89186478 96.93257599 218.89702606 97.94140625 218.90234375 C98.93881332 218.9037587 99.9362204 218.90517365 100.96385193 218.90663147 C104.16343124 218.91224886 107.36294169 218.92480429 110.5625 218.9375 C112.72591045 218.94251276 114.88932199 218.94707605 117.05273438 218.95117188 C122.36853774 218.96137495 127.68419139 218.98094692 133 219 C133 207.45 133 195.9 133 184 C133.33 184 133.66 184 134 184 C135.01463922 192.71502616 135.08038401 201.23814286 135 210 C139.95 210 144.9 210 150 210 C150 214.95 150 219.9 150 225 C154.95 225 159.9 225 165 225 C165 220.05 165 215.1 165 210 C169.95 210 174.9 210 180 210 C180 214.95 180 219.9 180 225 C185.74813012 224.63936201 185.74813012 224.63936201 188 222 C187.625 223.9375 187.625 223.9375 187 226 C184.69179492 227.15410254 183.39215724 227.1210297 180.82568359 227.11352539 C179.53457169 227.11341209 179.53457169 227.11341209 178.21737671 227.11329651 C177.28712677 227.10813522 176.35687683 227.10297394 175.3984375 227.09765625 C174.44683746 227.0962413 173.49523743 227.09482635 172.51480103 227.09336853 C169.46816903 227.08776012 166.42160987 227.07520619 163.375 227.0625 C161.31250106 227.05748608 159.25000097 227.05292299 157.1875 227.04882812 C152.12494919 227.03863781 147.06255637 227.01906402 142 227 C142.33 238.22 142.66 249.44 143 261 C147.95 261 152.9 261 158 261 C166.47055014 264.08020005 172.0329963 268.46218003 176.31640625 276.45703125 C179.61842353 283.94697289 179.89340308 289.77081585 177.4375 297.5 C174.77593187 304.23330043 170.75690146 309.55413516 164.625 313.5 C160 315 160 315 143 315 C142.67 326.55 142.34 338.1 142 350 C198.43 349.505 198.43 349.505 256 349 C255.67 352.63 255.34 356.26 255 360 C170.85 360 86.7 360 0 360 C0 241.2 0 122.4 0 0 Z " fill="#F8F8F8" transform="translate(0,0)"/>
<path d="M0 0 C4.82380802 -0.0246519 9.64757967 -0.04283693 14.47143555 -0.05493164 C16.11369464 -0.05997174 17.75594923 -0.06680378 19.39819336 -0.07543945 C21.75375479 -0.08751926 24.10925709 -0.09323139 26.46484375 -0.09765625 C27.20339096 -0.10281754 27.94193817 -0.10797882 28.7028656 -0.11329651 C30.46898088 -0.1134925 32.23497146 -0.06194719 34 0 C34.495 0.495 34.495 0.495 35 1 C34.96725339 3.33394052 34.89812121 5.66740066 34.8125 8 C34.7168862 15.86539542 35.63325352 21.3147775 41.0234375 27.21484375 C46.86283534 32.72540178 52.14736315 36.05959044 60.3125 36.4375 C68.80549189 36.18084365 76.078172 33.06282391 82 27 C84.81929322 22.8118538 87.06673708 18.931905 87.31640625 13.8671875 C87.35451416 13.14128418 87.39262207 12.41538086 87.43188477 11.66748047 C87.47498779 10.74596191 87.51809082 9.82444336 87.5625 8.875 C87.706875 5.94625 87.85125 3.0175 88 0 C99.55 0 111.1 0 123 0 C123.06058594 3.15304688 123.12117188 6.30609375 123.18359375 9.5546875 C123.24535479 12.59947172 123.30875423 15.64421771 123.37231445 18.68896484 C123.41569752 20.80937313 123.45737007 22.92981712 123.49731445 25.05029297 C123.55493543 28.09353408 123.61865325 31.1365949 123.68359375 34.1796875 C123.70030624 35.13181122 123.71701874 36.08393494 123.73423767 37.06491089 C123.7641555 38.38605392 123.7641555 38.38605392 123.79467773 39.73388672 C123.81799416 40.89970779 123.81799416 40.89970779 123.84178162 42.08908081 C123.88783251 44.08556935 123.88783251 44.08556935 125 46 C128.96601248 45.38823913 128.96601248 45.38823913 132.87109375 44.484375 C138.43665847 43.21808138 144.78356334 42.9364746 149.9375 45.625 C153.71499025 48.55448223 156.02041814 51.46941354 157.75 55.9375 C158.49992441 62.12437642 157.97706648 66.45649689 155 72 C151.70663792 76.00544036 149.08597245 77.94442081 144 79 C138.422447 79.42145497 134.17077561 79.21604669 129 77 C127.35 77.33 125.7 77.66 124 78 C123.67 92.85 123.34 107.7 123 123 C108.53518489 123.06781686 94.07047563 123.12284009 79.60553741 123.15543652 C72.8886596 123.17088118 66.17188785 123.19192446 59.45507812 123.22631836 C52.97117489 123.25894993 46.48738174 123.27686119 40.00340271 123.28463173 C37.53151212 123.29016836 35.05962745 123.30098004 32.58778381 123.31719017 C29.12154183 123.33901437 25.65575292 123.34196476 22.18945312 123.34057617 C21.17093262 123.351362 20.15241211 123.36214783 19.10302734 123.3732605 C13.0693135 123.3471608 8.34480624 122.93615972 3 120 C-0.75533661 114.326293 -0.40995183 108.46678398 -0.34057617 101.83227539 C-0.34101425 100.72909973 -0.34145233 99.62592407 -0.34190369 98.48931885 C-0.33982086 94.85858193 -0.31651291 91.22831208 -0.29296875 87.59765625 C-0.28737102 85.07417554 -0.28310176 82.55069156 -0.28010559 80.02720642 C-0.26983836 74.0739404 -0.24621641 68.12082317 -0.21605712 62.16763347 C-0.18245356 55.38648709 -0.16601219 48.6053325 -0.15097082 41.8241235 C-0.11966497 27.88265704 -0.06694182 13.94133766 0 0 Z " fill="#010101" transform="translate(10,227)"/>
<path d="M0 0 C4.36775158 3.14884416 7.96773395 6.77820184 9.6875 11.9375 C9.95064435 17.28810173 9.45458665 20.85712589 7.6875 25.9375 C7.43613967 29.14666171 7.43613967 29.14666171 7.6875 31.9375 C9.22980977 33.47980977 10.6915971 33.09997487 12.84008789 33.14282227 C13.72092545 33.16276749 14.601763 33.18271271 15.5092926 33.20326233 C16.46657761 33.21997482 17.42386261 33.23668732 18.41015625 33.25390625 C19.38536728 33.27468735 20.36057831 33.29546844 21.36534119 33.31687927 C24.4934863 33.38248412 27.62171822 33.44131028 30.75 33.5 C32.8652435 33.54317483 34.98047809 33.58678877 37.09570312 33.63085938 C42.29287587 33.73817655 47.49013577 33.8399222 52.6875 33.9375 C52.78109417 48.40225625 52.85128661 62.8669653 52.89474869 77.33196259 C52.91534171 84.04888555 52.94339934 90.76561996 52.98925781 97.48242188 C53.03276664 103.96633401 53.05664814 110.45005043 53.06700897 116.93409729 C53.07439119 119.40600159 53.08880692 121.87789536 53.11042023 124.34971619 C53.13952001 127.81606062 53.14345309 131.28159965 53.14160156 134.74804688 C53.15598267 135.76656738 53.17036377 136.78508789 53.18518066 137.83447266 C53.15023041 143.89430929 52.63856245 149.10528832 48.6875 153.9375 C42.99749642 157.6126819 37.32424767 157.34858774 30.70336914 157.27807617 C29.61970062 157.27851425 28.5360321 157.27895233 27.41952515 157.27940369 C23.85371604 157.2773212 20.28838277 157.2540149 16.72265625 157.23046875 C14.24401608 157.2248709 11.76537258 157.22060169 9.28672791 157.21760559 C2.77487972 157.20617183 -3.73676654 157.17671696 -10.24853516 157.14349365 C-16.89807322 157.11113204 -23.54767022 157.09909346 -30.19726562 157.08398438 C-43.2357799 157.05184608 -56.27409154 156.99908983 -69.3125 156.9375 C-69.3125 145.3875 -69.3125 133.8375 -69.3125 121.9375 C-65.38282087 120.95508022 -62.5751897 120.96291537 -58.5625 121.125 C-51.36721136 121.15485597 -47.07395471 120.17164797 -41.640625 115.5 C-36.35767374 110.0601294 -33.27179103 102.43799236 -32.8125 94.875 C-33.84704009 86.72799678 -36.98872161 79.3422043 -43.3125 73.9375 C-50.30081463 68.77165391 -56.89352234 68.49051197 -65.28515625 68.859375 C-66.28417969 68.88515625 -67.28320312 68.9109375 -68.3125 68.9375 C-69.3125 67.9375 -69.3125 67.9375 -69.42602539 64.70288086 C-69.42586631 63.26935874 -69.42017407 61.83583088 -69.41015625 60.40234375 C-69.4087413 59.64909317 -69.40732635 58.89584259 -69.40586853 58.11976624 C-69.40025376 55.7048044 -69.38769883 53.28993399 -69.375 50.875 C-69.3699869 49.24153779 -69.36542366 47.60807414 -69.36132812 45.97460938 C-69.35027954 41.96220415 -69.33300506 37.94986759 -69.3125 33.9375 C-68.02037598 33.91244385 -66.72825195 33.8873877 -65.39697266 33.86157227 C-60.61480344 33.76758376 -55.83278238 33.66734234 -51.05078125 33.56518555 C-48.97887634 33.52180423 -46.90693493 33.48013154 -44.83496094 33.44018555 C-41.86121609 33.38256035 -38.88765552 33.31884375 -35.9140625 33.25390625 C-34.51868759 33.22883751 -34.51868759 33.22883751 -33.09512329 33.20326233 C-31.80401138 33.1733445 -31.80401138 33.1733445 -30.48681641 33.14282227 C-29.34764267 33.11950584 -29.34764267 33.11950584 -28.18545532 33.09571838 C-26.22134279 33.04622873 -26.22134279 33.04622873 -24.3125 31.9375 C-24.14397697 28.48277789 -24.31092158 25.94242094 -25.375 22.625 C-26.87810595 16.71278326 -26.41651536 12.02724335 -23.5625 6.625 C-17.0086345 -1.20322824 -9.7965463 -3.14228844 0 0 Z " fill="#010101" transform="translate(211.3125,193.0625)"/>
<path d="M0 0 C0.97312637 -0.00274933 1.94625275 -0.00549866 2.9488678 -0.0083313 C4.54029854 0.00245453 4.54029854 0.00245453 6.16387939 0.01345825 C7.84724648 0.01302017 7.84724648 0.01302017 9.56462097 0.01257324 C13.27649652 0.01396732 16.9881717 0.02953246 20.70001221 0.04519653 C23.27262258 0.04892638 25.84523438 0.05177348 28.41784668 0.05377197 C34.49867304 0.06062976 40.57941663 0.07639502 46.6602118 0.09647095 C53.58398372 0.11883332 60.50775909 0.12982423 67.43155813 0.13986182 C81.67212314 0.16076137 95.91262762 0.19593525 110.15313721 0.24050903 C110.17778911 5.06431705 110.19597413 9.8880887 110.20806885 14.71194458 C110.21310895 16.35420368 110.21994099 17.99645827 110.22857666 19.63870239 C110.24065646 21.99426382 110.24636859 24.34976612 110.25079346 26.70535278 C110.25595474 27.44389999 110.26111603 28.1824472 110.26643372 28.94337463 C110.26662971 30.70948991 110.21508439 32.47548049 110.15313721 34.24050903 C109.82313721 34.57050903 109.49313721 34.90050903 109.15313721 35.24050903 C107.39600466 35.19821944 105.63880484 35.15054284 103.88287354 35.07302856 C95.9230709 34.7699517 89.75271015 35.27783804 83.15313721 40.24050903 C77.8548618 45.15298769 74.55892576 50.96233825 73.87969971 58.12332153 C73.59928724 67.07495035 74.86926 73.67669529 81.12579346 80.34207153 C87.42377722 86.06323061 91.43812708 87.53427078 99.84063721 87.30300903 C102.61577987 87.24144054 105.37637588 87.219853 108.15313721 87.24050903 C109.15313721 88.24050903 109.15313721 88.24050903 109.2666626 91.47512817 C109.26650352 92.90865029 109.26081128 94.34217816 109.25079346 95.77566528 C109.24937851 96.52891586 109.24796356 97.28216644 109.24650574 98.0582428 C109.24089097 100.47320463 109.22833604 102.88807504 109.21563721 105.30300903 C109.21062411 106.93647124 109.20606087 108.56993489 109.20196533 110.20339966 C109.19091674 114.21580488 109.17364227 118.22814144 109.15313721 122.24050903 C107.93207275 122.26032837 106.7110083 122.28014771 105.45294189 122.30056763 C100.92034367 122.37667026 96.38806451 122.46538064 91.85577393 122.55789185 C89.89457501 122.59616231 87.93330636 122.63101857 85.97198486 122.66238403 C83.15190723 122.70807643 80.33230883 122.76606404 77.51251221 122.82644653 C76.19824249 122.84377335 76.19824249 122.84377335 74.85742188 122.8614502 C74.03687317 122.88131989 73.21632446 122.90118958 72.37091064 122.92166138 C71.29169342 122.94164688 71.29169342 122.94164688 70.19067383 122.96203613 C67.85158245 123.28172293 66.19786484 124.08640119 64.15313721 125.24050903 C64.36969971 127.15863403 64.36969971 127.15863403 64.59063721 129.11550903 C64.67184814 129.83480591 64.75305908 130.55410278 64.83673096 131.29519653 C65.06606681 133.31455219 65.06606681 133.31455219 66.15313721 135.24050903 C66.70988685 141.19344756 66.69454838 146.21398994 63.15313721 151.24050903 C58.8057654 155.60843579 55.30887568 158.33969659 48.96563721 158.55300903 C43.95627992 158.48774053 40.2426326 157.10870716 36.15313721 154.24050903 C31.91284815 149.78276926 31.00334845 146.41439308 30.96563721 140.36550903 C30.95145752 139.33683716 30.93727783 138.30816528 30.92266846 137.24832153 C31.1590697 134.16308503 31.97132847 132.07124459 33.15313721 129.24050903 C33.15313721 127.92050903 33.15313721 126.60050903 33.15313721 125.24050903 C30.26633662 123.6057074 28.15264955 122.98146408 24.84356689 122.92166138 C23.58271271 122.89185684 23.58271271 122.89185684 22.29638672 122.8614502 C21.39833313 122.84989899 20.50027954 122.83834778 19.57501221 122.82644653 C18.64843811 122.80708038 17.72186401 122.78771423 16.76721191 122.76776123 C13.8126135 122.70806136 10.85797592 122.66161835 7.90313721 122.61550903 C5.89791204 122.57732043 3.89270312 122.53826818 1.88751221 122.49832153 C-3.0238139 122.40236763 -7.9352168 122.31830101 -12.84686279 122.24050903 C-12.94037377 107.48044474 -13.01087503 92.72041974 -13.05411148 77.96011925 C-13.07472206 71.10637881 -13.10281353 64.25282261 -13.14862061 57.39920044 C-13.19280203 50.78564493 -13.21599787 44.17223058 -13.22637177 37.55852127 C-13.23376511 35.03472505 -13.24820242 32.51093936 -13.26978302 29.98722458 C-13.29880046 26.45342074 -13.30281932 22.92040885 -13.30096436 19.38650513 C-13.31534546 18.34209259 -13.32972656 17.29768005 -13.34454346 16.22161865 C-13.31157303 10.42063536 -12.94321919 6.71809588 -8.84686279 2.24050903 C-5.81573145 0.3637339 -3.53922107 -0.00772756 0 0 Z " fill="#000000" transform="translate(22.84686279296875,95.75949096679688)"/>
<path d="M0 0 C2.98700474 1.34300779 5.07788808 2.82702661 7.39077759 5.1368103 C8.36652489 6.10409813 8.36652489 6.10409813 9.36198425 7.09092712 C10.06446793 7.79745926 10.7669516 8.50399139 11.49072266 9.23193359 C12.23911911 9.97682541 12.98751556 10.72171722 13.7585907 11.48918152 C16.23213843 13.9539236 18.69829498 16.42591373 21.1640625 18.8984375 C22.87962057 20.61264859 24.59547546 22.32656267 26.31161499 24.04019165 C29.90762219 27.63324916 33.4999841 31.22990227 37.08984375 34.82910156 C41.69446995 39.44512208 46.30801524 44.05210709 50.92432594 48.65643883 C54.46920407 52.19409426 58.00931005 55.73649418 61.54798508 59.28035355 C63.24740088 60.98110471 64.94830691 62.68036815 66.65071487 64.37812424 C69.02803545 66.75037301 71.39886222 69.1289263 73.76806641 71.50927734 C74.47459854 72.21176102 75.18113068 72.91424469 75.90907288 73.63801575 C76.55393143 74.28851395 77.19878998 74.93901215 77.8631897 75.60922241 C78.42397532 76.17076208 78.98476093 76.73230175 79.56254005 77.31085777 C81.89195195 80.04812222 82.91035127 82.31269309 83.375 85.875 C82.51940596 93.00495034 76.34554719 97.93111015 71.47753906 102.74951172 C70.72593002 103.50141281 69.97432098 104.2533139 69.19993591 105.02799988 C66.72654569 107.50000221 64.24615768 109.96485411 61.765625 112.4296875 C60.04454655 114.14703391 58.32391055 115.86482384 56.60369873 117.58303833 C52.08389706 122.09521865 47.55812056 126.60135939 43.03106689 131.10626221 C38.40900963 135.70782884 33.79263742 140.31509104 29.17578125 144.921875 C20.12273802 153.95349474 11.06356328 162.97893818 2 172 C-1.71713736 170.26239853 -4.08741012 168.14323122 -6.984375 165.2109375 C-7.44483215 164.74765045 -7.90528931 164.2843634 -8.37969971 163.80703735 C-9.84125078 162.33434102 -11.29567168 160.85482597 -12.75 159.375 C-13.74302611 158.37193678 -14.73651089 157.36932743 -15.73046875 156.3671875 C-18.15897941 153.91669165 -20.58114675 151.4600333 -23 149 C-21.45457353 145.69098422 -20.03635336 144.03721341 -17.125 141.8125 C-12.10864034 137.52579265 -9.56000601 133.08740019 -8.66015625 126.51953125 C-8.3233966 117.83113216 -10.84306124 110.51227065 -16.25 103.7265625 C-22.26026812 97.79678905 -30.0473005 96.64831132 -38.16186523 96.6171875 C-44.20516623 96.75676573 -48.45120958 98.01033173 -53 102 C-55.24468158 104.52994319 -57.19243021 107.14333088 -59 110 C-63.27180143 109.50743514 -65.27419678 107.06985793 -68.203125 104.08984375 C-68.6857782 103.60294571 -69.1684314 103.11604767 -69.66571045 102.61439514 C-71.2010085 101.0623455 -72.72552925 99.50017864 -74.25 97.9375 C-75.2909722 96.88147643 -76.3326314 95.82612962 -77.375 94.77148438 C-79.92467633 92.18878585 -82.46479196 89.59691118 -85 87 C-83.38453068 82.83607966 -80.32256069 80.17178459 -77.15234375 77.16796875 C-75.97793488 76.02859309 -74.80412502 74.88859974 -73.63085938 73.74804688 C-71.78495618 71.96402576 -69.93493587 70.18506352 -68.07397461 68.41674805 C-66.27386854 66.70159992 -64.49345739 64.96785827 -62.71484375 63.23046875 C-62.15756088 62.7104277 -61.60027802 62.19038666 -61.02610779 61.65458679 C-57.28152656 57.96033487 -56.23990757 55.22506391 -56 50 C-56.73605469 49.6596875 -57.47210938 49.319375 -58.23046875 48.96875 C-63.70994936 46.24710573 -68.33696689 43.88696066 -71.2578125 38.34375 C-73.18671875 32.25246711 -73.08100614 26.2420868 -70.3125 20.5 C-66.78414695 16.68556427 -63.52837051 13.24753278 -58.20703125 12.7265625 C-46.88200694 12.38772403 -46.88200694 12.38772403 -42.5 16.15625 C-39.33912557 20.04149149 -37.1514348 24.50011256 -35 29 C-28.37628646 28.76067739 -25.6589154 26.48490096 -21.19140625 21.77734375 C-20.57982162 21.15726944 -19.968237 20.53719513 -19.33811951 19.89833069 C-17.39831053 17.92507967 -15.48046708 15.93196445 -13.5625 13.9375 C-12.24684129 12.59173024 -10.92979772 11.24731288 -9.61132812 9.90429688 C-6.39130365 6.61831002 -3.19081132 3.31435112 0 0 Z " fill="#000000" transform="translate(244,10)"/>
<path d="M0 0 C4.95 0 9.9 0 15 0 C15 4.95 15 9.9 15 15 C19.95 15 24.9 15 30 15 C30 19.95 30 24.9 30 30 C34.95 30 39.9 30 45 30 C45 34.95 45 39.9 45 45 C49.95 45 54.9 45 60 45 C60 49.95 60 54.9 60 60 C64.95 60 69.9 60 75 60 C75 64.95 75 69.9 75 75 C79.95 75 84.9 75 90 75 C90 79.95 90 84.9 90 90 C88.35 90.33 86.7 90.66 85 91 C84.58058608 90.50971565 84.16117216 90.0194313 83.72904873 89.51428986 C79.52416597 84.64724695 75.15551115 80.01669146 70.59594727 75.48242188 C69.892668 74.77899658 69.18938873 74.07557129 68.46479797 73.35083008 C66.16769954 71.05442155 63.86709262 68.7615634 61.56640625 66.46875 C59.96193412 64.86614533 58.3576844 63.26331796 56.75364685 61.66027832 C52.55227257 57.4627034 48.34790276 53.26814159 44.1428833 49.07421875 C39.84407892 44.78568424 35.54814021 40.4942812 31.25195312 36.203125 C22.83742372 27.79928735 14.41972414 19.39863286 6 11 C4.35 11.66 2.7 12.32 1 13 C0 12 0 12 -0.09765625 9.27734375 C-0.06510417 6.18489583 -0.03255208 3.09244792 0 0 Z " fill="#EDEDED" transform="translate(240,0)"/>
<path d="M0 0 C1.65 0 3.3 0 5 0 C5.33 1.98 5.66 3.96 6 6 C7.11117187 5.94199219 8.22234375 5.88398438 9.3671875 5.82421875 C19.50467156 5.45019234 27.04739394 5.79723772 35.015625 12.76171875 C40.55972728 18.50382469 43.49894868 25.05422088 44.5 32.9375 C43.98919638 41.09388034 40.55748363 48.50875893 34.91015625 54.3359375 C30.9944432 57.74717218 27.58084405 59.98892342 22.26953125 60.01171875 C19.81424911 59.77969632 17.42265751 59.45673051 15 59 C15.020625 58.05125 15.04125 57.1025 15.0625 56.125 C15.22551826 53.09333717 15.22551826 53.09333717 14 51 C15.08667969 50.79697266 15.08667969 50.79697266 16.1953125 50.58984375 C22.3371123 49.22226966 26.08514542 47.84375722 29.9765625 42.81640625 C32.28555176 38.71839095 32.31404356 34.63214248 32 30 C30.29951968 24.80906008 28.16333079 21.53883118 24 18 C20.57767028 16.85922343 17.91326783 16.90184883 14.3125 16.9375 C13.13300781 16.94652344 11.95351562 16.95554687 10.73828125 16.96484375 C9.83464844 16.97644531 8.93101562 16.98804688 8 17 C8 16.67 8 16.34 8 16 C5.36 15.67 2.72 15.34 0 15 C0 10.05 0 5.1 0 0 Z " fill="#F3F3F3" transform="translate(135,255)"/>
<path d="M0 0 C4.95 0 9.9 0 15 0 C17.42006824 9.19625932 17.42006824 9.19625932 16 14 C11.91035711 20.87998705 4.73037196 29.30600364 -3.18359375 31.64550781 C-7.52114989 32.0780335 -10.72597739 31.12474279 -15 30 C-15 25.05 -15 20.1 -15 15 C-10.05 15 -5.1 15 0 15 C0 10.05 0 5.1 0 0 Z " fill="#FEFEFE" transform="translate(225,0)"/>
<path d="M0 0 C4.95 0 9.9 0 15 0 C15 4.95 15 9.9 15 15 C19.95 15 24.9 15 30 15 C30 10.05 30 5.1 30 0 C34.95 0 39.9 0 45 0 C45 4.95 45 9.9 45 15 C37.12299659 17.2505724 37.12299659 17.2505724 33.28979492 17.25878906 C32.43588669 17.26509338 31.58197845 17.27139771 30.70219421 17.27789307 C29.80402481 17.2738446 28.90585541 17.26979614 27.98046875 17.265625 C26.57079582 17.26849518 26.57079582 17.26849518 25.13264465 17.27142334 C23.15849538 17.27277794 21.18433698 17.26913245 19.21020508 17.26074219 C16.17964951 17.2499721 13.14967864 17.26069282 10.11914062 17.2734375 C8.19791536 17.27211695 6.27669045 17.26955674 4.35546875 17.265625 C2.99303291 17.27169769 2.99303291 17.27169769 1.60307312 17.27789307 C0.76492569 17.27158875 -0.07322174 17.26528442 -0.93676758 17.25878906 C-1.6751033 17.25719788 -2.41343903 17.25560669 -3.17414856 17.25396729 C-5 17 -5 17 -7 15 C-6.67 14.01 -6.34 13.02 -6 12 C-5.67 12.66 -5.34 13.32 -5 14 C-3.35 14.33 -1.7 14.66 0 15 C0 10.05 0 5.1 0 0 Z " fill="#FDFDFD" transform="translate(225,210)"/>
<path d="M0 0 C4.95 0 9.9 0 15 0 C15 4.95 15 9.9 15 15 C19.95 15 24.9 15 30 15 C30 10.05 30 5.1 30 0 C34.95 0 39.9 0 45 0 C45 4.95 45 9.9 45 15 C50.74813012 14.63936201 50.74813012 14.63936201 53 12 C52.625 13.9375 52.625 13.9375 52 16 C49.72189361 17.13905319 48.4630363 17.1266699 45.93334961 17.12939453 C45.09585678 17.13254669 44.25836395 17.13569885 43.39549255 17.13894653 C42.49025345 17.1369223 41.58501434 17.13489807 40.65234375 17.1328125 C39.72531143 17.13376923 38.79827911 17.13472595 37.84315491 17.13571167 C35.88200818 17.13639276 33.9208592 17.1345434 31.9597168 17.13037109 C28.94640073 17.12501582 25.93323332 17.13032158 22.91992188 17.13671875 C21.01822884 17.13605807 19.11653589 17.13477713 17.21484375 17.1328125 C16.30758041 17.13483673 15.40031708 17.13686096 14.46556091 17.13894653 C8.11495378 17.11495378 8.11495378 17.11495378 7 16 C4.69 15.67 2.38 15.34 0 15 C0 10.05 0 5.1 0 0 Z " fill="#FEFEFE" transform="translate(135,210)"/>
<path d="M0 0 C0.99 0.495 0.99 0.495 2 1 C-22.33333333 25.33333333 -46.66666667 49.66666667 -71 74 C-69.68 74.33 -68.36 74.66 -67 75 C-67 79.95 -67 84.9 -67 90 C-71.95 90 -76.9 90 -82 90 C-82 85.05 -82 80.1 -82 75 C-86.95 75 -91.9 75 -97 75 C-97 70.05 -97 65.1 -97 60 C-94 60 -94 60 -92.19067383 61.46875 C-91.20877075 62.47421875 -91.20877075 62.47421875 -90.20703125 63.5 C-89.49482422 64.221875 -88.78261719 64.94375 -88.04882812 65.6875 C-86.9418457 66.8321875 -86.9418457 66.8321875 -85.8125 68 C-84.68811523 69.1446875 -84.68811523 69.1446875 -83.54101562 70.3125 C-81.68713177 72.20180839 -79.84058931 74.09775206 -78 76 C-75.05790165 74.67289741 -72.98385569 73.23210009 -70.70965576 70.95016479 C-70.0815097 70.32476807 -69.45336365 69.69937134 -68.80618286 69.05502319 C-68.12860931 68.37025909 -67.45103577 67.685495 -66.75292969 66.97998047 C-66.03058136 66.25792419 -65.30823303 65.53586792 -64.56399536 64.79193115 C-62.17851721 62.40506011 -59.80020061 60.0111838 -57.421875 57.6171875 C-55.76892998 55.96051221 -54.11554273 54.30427805 -52.46173096 52.64846802 C-48.11063912 48.28974083 -43.76558687 43.92504076 -39.42175293 39.55908203 C-34.98791629 35.10478495 -30.54841091 30.65614582 -26.109375 26.20703125 C-17.4006834 17.47689145 -8.69835992 8.74043306 0 0 Z " fill="#EDEDED" transform="translate(322,105)"/>
<path d="M0 0 C0.66 0.66 1.32 1.32 2 2 C4.22658154 2.37004294 4.22658154 2.37004294 6.7890625 2.4140625 C8.20058594 2.47207031 8.20058594 2.47207031 9.640625 2.53125 C10.62546875 2.5621875 11.6103125 2.593125 12.625 2.625 C14.11386719 2.68300781 14.11386719 2.68300781 15.6328125 2.7421875 C18.08822942 2.83662661 20.54408957 2.91940881 23 3 C23 7.95 23 12.9 23 18 C27.95 18 32.9 18 38 18 C38 22.95 38 27.9 38 33 C37.67 33 37.34 33 37 33 C36.67 40.92 36.34 48.84 36 57 C22.14 57 8.28 57 -6 57 C-6 56.67 -6 56.34 -6 56 C7.53 56 21.06 56 35 56 C34.67 44.78 34.34 33.56 34 22 C28.39 22 22.78 22 17 22 C9.77323225 18.87491124 4.22894784 13.26407412 0.5625 6.25 C0 4 0 4 0 0 Z " fill="#D6D6D6" transform="translate(97,162)"/>
<path d="M0 0 C9.8490182 -0.59994019 16.09496764 0.69853591 24.25 6.1875 C29.75089042 11.81341065 32.30309499 16.58705398 32.3125 24.5625 C32.23324706 26.37626016 32.13783636 28.18974917 32 30 C28.7 29.67 25.4 29.34 22 29 C22 24.05 22 19.1 22 14 C17.05 14 12.1 14 7 14 C7 9.71 7 5.42 7 1 C4.69 1 2.38 1 0 1 C0 0.67 0 0.34 0 0 Z " fill="#FCFCFC" transform="translate(203,106)"/>
<path d="M0 0 C0.33 0 0.66 0 1 0 C1.745468 7.78599916 0.57368893 13.56759731 -4 20 C-6.82458536 22.90960632 -9.80406867 25.50731282 -13 28 C-11.79618552 30.49361571 -10.54571278 32.68143083 -9 35 C-10 36 -10 36 -13.37890625 36.09765625 C-14.77347492 36.09191424 -16.16801597 36.07890228 -17.5625 36.0625 C-20.016875 36.041875 -22.47125 36.02125 -25 36 C-25 31.05 -25 26.1 -25 21 C-20.05 21 -15.1 21 -10 21 C-10 16.05 -10 11.1 -10 6 C-7.03 6 -4.06 6 -1 6 C-0.67 4.02 -0.34 2.04 0 0 Z " fill="#EEEEEE" transform="translate(235,129)"/>
<path d="M0 0 C3.96 0 7.92 0 12 0 C12 3 12 3 10 7 C17.59 14.59 25.18 22.18 33 30 C29.78658631 31.60670684 26.37041032 30.82510855 22.875 30.5625 C22.12089844 30.51029297 21.36679688 30.45808594 20.58984375 30.40429688 C18.7262063 30.27454996 16.86305004 30.13792512 15 30 C15 25.05 15 20.1 15 15 C10.05 15 5.1 15 0 15 C0 10.05 0 5.1 0 0 Z " fill="#EDEDED" transform="translate(150,90)"/>
<path d="M0 0 C1.98 0 3.96 0 6 0 C6 14.85 6 29.7 6 45 C4.35 45 2.7 45 1 45 C1 66.12 1 87.24 1 109 C0.67 109 0.34 109 0 109 C-0.15376965 94.93588013 -0.30173936 80.8717096 -0.4429636 66.80745792 C-0.5087031 60.27761282 -0.57632902 53.74779838 -0.64819336 47.21801758 C-0.71741427 40.922229 -0.78177507 34.62640816 -0.84269524 28.33053398 C-0.86686249 25.92263405 -0.89281271 23.51475136 -0.92053413 21.10688972 C-0.95891662 17.74714992 -0.99108909 14.38740593 -1.02172852 11.02758789 C-1.03467453 10.02130341 -1.04762054 9.01501892 -1.06095886 7.97824097 C-1.06799835 7.06813766 -1.07503784 6.15803436 -1.08229065 5.22035217 C-1.09058679 4.42484483 -1.09888292 3.62933748 -1.10743046 2.80972385 C-1 1 -1 1 0 0 Z " fill="#D2D2D2" transform="translate(264,225)"/>
<path d="M0 0 C-0.99 0.33 -1.98 0.66 -3 1 C-3 4.3 -3 7.6 -3 11 C-7.95 11 -12.9 11 -18 11 C-18 6.05 -18 1.1 -18 -4 C-10.13696559 -5.41971455 -6.25467542 -5.04916535 0 0 Z " fill="#FEFEFE" transform="translate(18,349)"/>
<path d="M0 0 C4.95 0 9.9 0 15 0 C15 4.95 15 9.9 15 15 C10.05 15 5.1 15 0 15 C0 10.05 0 5.1 0 0 Z " fill="#FEFEFE" transform="translate(210,165)"/>
<path d="M0 0 C4.95 0 9.9 0 15 0 C15 4.95 15 9.9 15 15 C10.05 15 5.1 15 0 15 C0 10.05 0 5.1 0 0 Z " fill="#EEEEEE" transform="translate(345,345)"/>
<path d="M0 0 C4.95 0 9.9 0 15 0 C15 4.95 15 9.9 15 15 C10.05 15 5.1 15 0 15 C0 10.05 0 5.1 0 0 Z " fill="#FFFFFF" transform="translate(330,345)"/>
<path d="M0 0 C4.95 0 9.9 0 15 0 C15 4.95 15 9.9 15 15 C10.05 15 5.1 15 0 15 C0 10.05 0 5.1 0 0 Z " fill="#EEEEEE" transform="translate(315,345)"/>
<path d="M0 0 C4.95 0 9.9 0 15 0 C15 4.95 15 9.9 15 15 C10.05 15 5.1 15 0 15 C0 10.05 0 5.1 0 0 Z " fill="#FFFFFF" transform="translate(300,345)"/>
<path d="M0 0 C4.95 0 9.9 0 15 0 C15 4.95 15 9.9 15 15 C10.05 15 5.1 15 0 15 C0 10.05 0 5.1 0 0 Z " fill="#EEEEEE" transform="translate(285,345)"/>
<path d="M0 0 C4.95 0 9.9 0 15 0 C15 4.95 15 9.9 15 15 C10.05 15 5.1 15 0 15 C0 10.05 0 5.1 0 0 Z " fill="#FFFFFF" transform="translate(270,345)"/>
<path d="M0 0 C4.95 0 9.9 0 15 0 C15 4.95 15 9.9 15 15 C10.05 15 5.1 15 0 15 C0 10.05 0 5.1 0 0 Z " fill="#FFFFFF" transform="translate(345,330)"/>
<path d="M0 0 C4.95 0 9.9 0 15 0 C15 4.95 15 9.9 15 15 C10.05 15 5.1 15 0 15 C0 10.05 0 5.1 0 0 Z " fill="#EEEEEE" transform="translate(330,330)"/>
<path d="M0 0 C4.95 0 9.9 0 15 0 C15 4.95 15 9.9 15 15 C10.05 15 5.1 15 0 15 C0 10.05 0 5.1 0 0 Z " fill="#FFFFFF" transform="translate(315,330)"/>
<path d="M0 0 C4.95 0 9.9 0 15 0 C15 4.95 15 9.9 15 15 C10.05 15 5.1 15 0 15 C0 10.05 0 5.1 0 0 Z " fill="#EEEEEE" transform="translate(300,330)"/>
<path d="M0 0 C4.95 0 9.9 0 15 0 C15 4.95 15 9.9 15 15 C10.05 15 5.1 15 0 15 C0 10.05 0 5.1 0 0 Z " fill="#FFFFFF" transform="translate(285,330)"/>
<path d="M0 0 C4.95 0 9.9 0 15 0 C15 4.95 15 9.9 15 15 C10.05 15 5.1 15 0 15 C0 10.05 0 5.1 0 0 Z " fill="#EEEEEE" transform="translate(270,330)"/>
<path d="M0 0 C4.95 0 9.9 0 15 0 C15 4.95 15 9.9 15 15 C10.05 15 5.1 15 0 15 C0 10.05 0 5.1 0 0 Z " fill="#EEEEEE" transform="translate(345,315)"/>
<path d="M0 0 C4.95 0 9.9 0 15 0 C15 4.95 15 9.9 15 15 C10.05 15 5.1 15 0 15 C0 10.05 0 5.1 0 0 Z " fill="#FFFFFF" transform="translate(330,315)"/>
<path d="M0 0 C4.95 0 9.9 0 15 0 C15 4.95 15 9.9 15 15 C10.05 15 5.1 15 0 15 C0 10.05 0 5.1 0 0 Z " fill="#EEEEEE" transform="translate(315,315)"/>
<path d="M0 0 C4.95 0 9.9 0 15 0 C15 4.95 15 9.9 15 15 C10.05 15 5.1 15 0 15 C0 10.05 0 5.1 0 0 Z " fill="#FFFFFF" transform="translate(300,315)"/>
<path d="M0 0 C4.95 0 9.9 0 15 0 C15 4.95 15 9.9 15 15 C10.05 15 5.1 15 0 15 C0 10.05 0 5.1 0 0 Z " fill="#EEEEEE" transform="translate(285,315)"/>
<path d="M0 0 C4.95 0 9.9 0 15 0 C15 4.95 15 9.9 15 15 C10.05 15 5.1 15 0 15 C0 10.05 0 5.1 0 0 Z " fill="#FFFFFF" transform="translate(270,315)"/>
<path d="M0 0 C4.95 0 9.9 0 15 0 C15 4.95 15 9.9 15 15 C10.05 15 5.1 15 0 15 C0 10.05 0 5.1 0 0 Z " fill="#FFFFFF" transform="translate(345,300)"/>
<path d="M0 0 C4.95 0 9.9 0 15 0 C15 4.95 15 9.9 15 15 C10.05 15 5.1 15 0 15 C0 10.05 0 5.1 0 0 Z " fill="#EEEEEE" transform="translate(330,300)"/>
<path d="M0 0 C4.95 0 9.9 0 15 0 C15 4.95 15 9.9 15 15 C10.05 15 5.1 15 0 15 C0 10.05 0 5.1 0 0 Z " fill="#FFFFFF" transform="translate(315,300)"/>
<path d="M0 0 C4.95 0 9.9 0 15 0 C15 4.95 15 9.9 15 15 C10.05 15 5.1 15 0 15 C0 10.05 0 5.1 0 0 Z " fill="#EEEEEE" transform="translate(300,300)"/>
<path d="M0 0 C4.95 0 9.9 0 15 0 C15 4.95 15 9.9 15 15 C10.05 15 5.1 15 0 15 C0 10.05 0 5.1 0 0 Z " fill="#FFFFFF" transform="translate(285,300)"/>
<path d="M0 0 C4.95 0 9.9 0 15 0 C15 4.95 15 9.9 15 15 C10.05 15 5.1 15 0 15 C0 10.05 0 5.1 0 0 Z " fill="#EEEEEE" transform="translate(270,300)"/>
<path d="M0 0 C4.95 0 9.9 0 15 0 C15 4.95 15 9.9 15 15 C10.05 15 5.1 15 0 15 C0 10.05 0 5.1 0 0 Z " fill="#EEEEEE" transform="translate(345,285)"/>
<path d="M0 0 C4.95 0 9.9 0 15 0 C15 4.95 15 9.9 15 15 C10.05 15 5.1 15 0 15 C0 10.05 0 5.1 0 0 Z " fill="#FFFFFF" transform="translate(330,285)"/>
<path d="M0 0 C4.95 0 9.9 0 15 0 C15 4.95 15 9.9 15 15 C10.05 15 5.1 15 0 15 C0 10.05 0 5.1 0 0 Z " fill="#EEEEEE" transform="translate(315,285)"/>
<path d="M0 0 C4.95 0 9.9 0 15 0 C15 4.95 15 9.9 15 15 C10.05 15 5.1 15 0 15 C0 10.05 0 5.1 0 0 Z " fill="#FFFFFF" transform="translate(300,285)"/>
<path d="M0 0 C4.95 0 9.9 0 15 0 C15 4.95 15 9.9 15 15 C10.05 15 5.1 15 0 15 C0 10.05 0 5.1 0 0 Z " fill="#EEEEEE" transform="translate(285,285)"/>
<path d="M0 0 C4.95 0 9.9 0 15 0 C15 4.95 15 9.9 15 15 C10.05 15 5.1 15 0 15 C0 10.05 0 5.1 0 0 Z " fill="#FFFFFF" transform="translate(270,285)"/>
<path d="M0 0 C4.95 0 9.9 0 15 0 C15 4.95 15 9.9 15 15 C10.05 15 5.1 15 0 15 C0 10.05 0 5.1 0 0 Z " fill="#FFFFFF" transform="translate(345,270)"/>
<path d="M0 0 C4.95 0 9.9 0 15 0 C15 4.95 15 9.9 15 15 C10.05 15 5.1 15 0 15 C0 10.05 0 5.1 0 0 Z " fill="#EEEEEE" transform="translate(330,270)"/>
<path d="M0 0 C4.95 0 9.9 0 15 0 C15 4.95 15 9.9 15 15 C10.05 15 5.1 15 0 15 C0 10.05 0 5.1 0 0 Z " fill="#FFFFFF" transform="translate(315,270)"/>
<path d="M0 0 C4.95 0 9.9 0 15 0 C15 4.95 15 9.9 15 15 C10.05 15 5.1 15 0 15 C0 10.05 0 5.1 0 0 Z " fill="#EEEEEE" transform="translate(300,270)"/>
<path d="M0 0 C4.95 0 9.9 0 15 0 C15 4.95 15 9.9 15 15 C10.05 15 5.1 15 0 15 C0 10.05 0 5.1 0 0 Z " fill="#FFFFFF" transform="translate(285,270)"/>
<path d="M0 0 C4.95 0 9.9 0 15 0 C15 4.95 15 9.9 15 15 C10.05 15 5.1 15 0 15 C0 10.05 0 5.1 0 0 Z " fill="#EEEEEE" transform="translate(270,270)"/>
<path d="M0 0 C4.95 0 9.9 0 15 0 C15 4.95 15 9.9 15 15 C10.05 15 5.1 15 0 15 C0 10.05 0 5.1 0 0 Z " fill="#EEEEEE" transform="translate(345,255)"/>
<path d="M0 0 C4.95 0 9.9 0 15 0 C15 4.95 15 9.9 15 15 C10.05 15 5.1 15 0 15 C0 10.05 0 5.1 0 0 Z " fill="#FFFFFF" transform="translate(330,255)"/>
<path d="M0 0 C4.95 0 9.9 0 15 0 C15 4.95 15 9.9 15 15 C10.05 15 5.1 15 0 15 C0 10.05 0 5.1 0 0 Z " fill="#EEEEEE" transform="translate(315,255)"/>
<path d="M0 0 C4.95 0 9.9 0 15 0 C15 4.95 15 9.9 15 15 C10.05 15 5.1 15 0 15 C0 10.05 0 5.1 0 0 Z " fill="#FFFFFF" transform="translate(300,255)"/>
<path d="M0 0 C4.95 0 9.9 0 15 0 C15 4.95 15 9.9 15 15 C10.05 15 5.1 15 0 15 C0 10.05 0 5.1 0 0 Z " fill="#EEEEEE" transform="translate(285,255)"/>
<path d="M0 0 C4.95 0 9.9 0 15 0 C15 4.95 15 9.9 15 15 C10.05 15 5.1 15 0 15 C0 10.05 0 5.1 0 0 Z " fill="#FFFFFF" transform="translate(270,255)"/>
<path d="M0 0 C4.95 0 9.9 0 15 0 C15 4.95 15 9.9 15 15 C10.05 15 5.1 15 0 15 C0 10.05 0 5.1 0 0 Z " fill="#FFFFFF" transform="translate(345,240)"/>
<path d="M0 0 C4.95 0 9.9 0 15 0 C15 4.95 15 9.9 15 15 C10.05 15 5.1 15 0 15 C0 10.05 0 5.1 0 0 Z " fill="#EEEEEE" transform="translate(330,240)"/>
<path d="M0 0 C4.95 0 9.9 0 15 0 C15 4.95 15 9.9 15 15 C10.05 15 5.1 15 0 15 C0 10.05 0 5.1 0 0 Z " fill="#FFFFFF" transform="translate(315,240)"/>
<path d="M0 0 C4.95 0 9.9 0 15 0 C15 4.95 15 9.9 15 15 C10.05 15 5.1 15 0 15 C0 10.05 0 5.1 0 0 Z " fill="#EEEEEE" transform="translate(300,240)"/>
<path d="M0 0 C4.95 0 9.9 0 15 0 C15 4.95 15 9.9 15 15 C10.05 15 5.1 15 0 15 C0 10.05 0 5.1 0 0 Z " fill="#FFFFFF" transform="translate(285,240)"/>
<path d="M0 0 C4.95 0 9.9 0 15 0 C15 4.95 15 9.9 15 15 C10.05 15 5.1 15 0 15 C0 10.05 0 5.1 0 0 Z " fill="#EEEEEE" transform="translate(270,240)"/>
<path d="M0 0 C4.95 0 9.9 0 15 0 C15 4.95 15 9.9 15 15 C10.05 15 5.1 15 0 15 C0 10.05 0 5.1 0 0 Z " fill="#EEEEEE" transform="translate(345,225)"/>
<path d="M0 0 C4.95 0 9.9 0 15 0 C15 4.95 15 9.9 15 15 C10.05 15 5.1 15 0 15 C0 10.05 0 5.1 0 0 Z " fill="#FFFFFF" transform="translate(330,225)"/>
<path d="M0 0 C4.95 0 9.9 0 15 0 C15 4.95 15 9.9 15 15 C10.05 15 5.1 15 0 15 C0 10.05 0 5.1 0 0 Z " fill="#EEEEEE" transform="translate(315,225)"/>
<path d="M0 0 C4.95 0 9.9 0 15 0 C15 4.95 15 9.9 15 15 C10.05 15 5.1 15 0 15 C0 10.05 0 5.1 0 0 Z " fill="#FFFFFF" transform="translate(300,225)"/>
<path d="M0 0 C4.95 0 9.9 0 15 0 C15 4.95 15 9.9 15 15 C10.05 15 5.1 15 0 15 C0 10.05 0 5.1 0 0 Z " fill="#EEEEEE" transform="translate(285,225)"/>
<path d="M0 0 C4.95 0 9.9 0 15 0 C15 4.95 15 9.9 15 15 C10.05 15 5.1 15 0 15 C0 10.05 0 5.1 0 0 Z " fill="#FFFFFF" transform="translate(270,225)"/>
<path d="M0 0 C4.95 0 9.9 0 15 0 C15 4.95 15 9.9 15 15 C10.05 15 5.1 15 0 15 C0 10.05 0 5.1 0 0 Z " fill="#FFFFFF" transform="translate(345,210)"/>
<path d="M0 0 C4.95 0 9.9 0 15 0 C15 4.95 15 9.9 15 15 C10.05 15 5.1 15 0 15 C0 10.05 0 5.1 0 0 Z " fill="#EEEEEE" transform="translate(330,210)"/>
<path d="M0 0 C4.95 0 9.9 0 15 0 C15 4.95 15 9.9 15 15 C10.05 15 5.1 15 0 15 C0 10.05 0 5.1 0 0 Z " fill="#FFFFFF" transform="translate(315,210)"/>
<path d="M0 0 C4.95 0 9.9 0 15 0 C15 4.95 15 9.9 15 15 C10.05 15 5.1 15 0 15 C0 10.05 0 5.1 0 0 Z " fill="#EEEEEE" transform="translate(300,210)"/>
<path d="M0 0 C4.95 0 9.9 0 15 0 C15 4.95 15 9.9 15 15 C10.05 15 5.1 15 0 15 C0 10.05 0 5.1 0 0 Z " fill="#FFFFFF" transform="translate(285,210)"/>
<path d="M0 0 C4.95 0 9.9 0 15 0 C15 4.95 15 9.9 15 15 C10.05 15 5.1 15 0 15 C0 10.05 0 5.1 0 0 Z " fill="#EEEEEE" transform="translate(270,210)"/>
<path d="M0 0 C4.95 0 9.9 0 15 0 C15 4.95 15 9.9 15 15 C10.05 15 5.1 15 0 15 C0 10.05 0 5.1 0 0 Z " fill="#EEEEEE" transform="translate(240,210)"/>
<path d="M0 0 C4.95 0 9.9 0 15 0 C15 4.95 15 9.9 15 15 C10.05 15 5.1 15 0 15 C0 10.05 0 5.1 0 0 Z " fill="#EEEEEE" transform="translate(150,210)"/>
<path d="M0 0 C4.95 0 9.9 0 15 0 C15 4.95 15 9.9 15 15 C10.05 15 5.1 15 0 15 C0 10.05 0 5.1 0 0 Z " fill="#EEEEEE" transform="translate(345,195)"/>
<path d="M0 0 C4.95 0 9.9 0 15 0 C15 4.95 15 9.9 15 15 C10.05 15 5.1 15 0 15 C0 10.05 0 5.1 0 0 Z " fill="#FFFFFF" transform="translate(330,195)"/>
<path d="M0 0 C4.95 0 9.9 0 15 0 C15 4.95 15 9.9 15 15 C10.05 15 5.1 15 0 15 C0 10.05 0 5.1 0 0 Z " fill="#EEEEEE" transform="translate(315,195)"/>
<path d="M0 0 C4.95 0 9.9 0 15 0 C15 4.95 15 9.9 15 15 C10.05 15 5.1 15 0 15 C0 10.05 0 5.1 0 0 Z " fill="#FFFFFF" transform="translate(300,195)"/>
<path d="M0 0 C4.95 0 9.9 0 15 0 C15 4.95 15 9.9 15 15 C10.05 15 5.1 15 0 15 C0 10.05 0 5.1 0 0 Z " fill="#EEEEEE" transform="translate(285,195)"/>
<path d="M0 0 C4.95 0 9.9 0 15 0 C15 4.95 15 9.9 15 15 C10.05 15 5.1 15 0 15 C0 10.05 0 5.1 0 0 Z " fill="#FFFFFF" transform="translate(270,195)"/>
<path d="M0 0 C4.95 0 9.9 0 15 0 C15 4.95 15 9.9 15 15 C10.05 15 5.1 15 0 15 C0 10.05 0 5.1 0 0 Z " fill="#EEEEEE" transform="translate(255,195)"/>
<path d="M0 0 C4.95 0 9.9 0 15 0 C15 4.95 15 9.9 15 15 C10.05 15 5.1 15 0 15 C0 10.05 0 5.1 0 0 Z " fill="#FFFFFF" transform="translate(240,195)"/>
<path d="M0 0 C4.95 0 9.9 0 15 0 C15 4.95 15 9.9 15 15 C10.05 15 5.1 15 0 15 C0 10.05 0 5.1 0 0 Z " fill="#FFFFFF" transform="translate(150,195)"/>
<path d="M0 0 C4.95 0 9.9 0 15 0 C15 4.95 15 9.9 15 15 C10.05 15 5.1 15 0 15 C0 10.05 0 5.1 0 0 Z " fill="#EEEEEE" transform="translate(135,195)"/>
<path d="M0 0 C4.95 0 9.9 0 15 0 C15 4.95 15 9.9 15 15 C10.05 15 5.1 15 0 15 C0 10.05 0 5.1 0 0 Z " fill="#FFFFFF" transform="translate(345,180)"/>
<path d="M0 0 C4.95 0 9.9 0 15 0 C15 4.95 15 9.9 15 15 C10.05 15 5.1 15 0 15 C0 10.05 0 5.1 0 0 Z " fill="#EEEEEE" transform="translate(330,180)"/>
<path d="M0 0 C4.95 0 9.9 0 15 0 C15 4.95 15 9.9 15 15 C10.05 15 5.1 15 0 15 C0 10.05 0 5.1 0 0 Z " fill="#FFFFFF" transform="translate(315,180)"/>
<path d="M0 0 C4.95 0 9.9 0 15 0 C15 4.95 15 9.9 15 15 C10.05 15 5.1 15 0 15 C0 10.05 0 5.1 0 0 Z " fill="#EEEEEE" transform="translate(300,180)"/>
<path d="M0 0 C4.95 0 9.9 0 15 0 C15 4.95 15 9.9 15 15 C10.05 15 5.1 15 0 15 C0 10.05 0 5.1 0 0 Z " fill="#FFFFFF" transform="translate(285,180)"/>
<path d="M0 0 C4.95 0 9.9 0 15 0 C15 4.95 15 9.9 15 15 C10.05 15 5.1 15 0 15 C0 10.05 0 5.1 0 0 Z " fill="#EEEEEE" transform="translate(270,180)"/>
<path d="M0 0 C4.95 0 9.9 0 15 0 C15 4.95 15 9.9 15 15 C10.05 15 5.1 15 0 15 C0 10.05 0 5.1 0 0 Z " fill="#FFFFFF" transform="translate(255,180)"/>
<path d="M0 0 C4.95 0 9.9 0 15 0 C15 4.95 15 9.9 15 15 C10.05 15 5.1 15 0 15 C0 10.05 0 5.1 0 0 Z " fill="#FFFFFF" transform="translate(225,180)"/>
<path d="M0 0 C4.95 0 9.9 0 15 0 C15 4.95 15 9.9 15 15 C10.05 15 5.1 15 0 15 C0 10.05 0 5.1 0 0 Z " fill="#FFFFFF" transform="translate(165,180)"/>
<path d="M0 0 C4.95 0 9.9 0 15 0 C15 4.95 15 9.9 15 15 C10.05 15 5.1 15 0 15 C0 10.05 0 5.1 0 0 Z " fill="#EEEEEE" transform="translate(150,180)"/>
<path d="M0 0 C4.95 0 9.9 0 15 0 C15 4.95 15 9.9 15 15 C10.05 15 5.1 15 0 15 C0 10.05 0 5.1 0 0 Z " fill="#FFFFFF" transform="translate(135,180)"/>
<path d="M0 0 C4.95 0 9.9 0 15 0 C15 4.95 15 9.9 15 15 C10.05 15 5.1 15 0 15 C0 10.05 0 5.1 0 0 Z " fill="#EEEEEE" transform="translate(345,165)"/>
<path d="M0 0 C4.95 0 9.9 0 15 0 C15 4.95 15 9.9 15 15 C10.05 15 5.1 15 0 15 C0 10.05 0 5.1 0 0 Z " fill="#FFFFFF" transform="translate(330,165)"/>
<path d="M0 0 C4.95 0 9.9 0 15 0 C15 4.95 15 9.9 15 15 C10.05 15 5.1 15 0 15 C0 10.05 0 5.1 0 0 Z " fill="#EEEEEE" transform="translate(315,165)"/>
<path d="M0 0 C4.95 0 9.9 0 15 0 C15 4.95 15 9.9 15 15 C10.05 15 5.1 15 0 15 C0 10.05 0 5.1 0 0 Z " fill="#FFFFFF" transform="translate(300,165)"/>
<path d="M0 0 C4.95 0 9.9 0 15 0 C15 4.95 15 9.9 15 15 C10.05 15 5.1 15 0 15 C0 10.05 0 5.1 0 0 Z " fill="#EEEEEE" transform="translate(285,165)"/>
<path d="M0 0 C4.95 0 9.9 0 15 0 C15 4.95 15 9.9 15 15 C10.05 15 5.1 15 0 15 C0 10.05 0 5.1 0 0 Z " fill="#FFFFFF" transform="translate(270,165)"/>
<path d="M0 0 C4.95 0 9.9 0 15 0 C15 4.95 15 9.9 15 15 C10.05 15 5.1 15 0 15 C0 10.05 0 5.1 0 0 Z " fill="#FFFFFF" transform="translate(180,165)"/>
<path d="M0 0 C4.95 0 9.9 0 15 0 C15 4.95 15 9.9 15 15 C10.05 15 5.1 15 0 15 C0 10.05 0 5.1 0 0 Z " fill="#EEEEEE" transform="translate(165,165)"/>
<path d="M0 0 C4.95 0 9.9 0 15 0 C15 4.95 15 9.9 15 15 C10.05 15 5.1 15 0 15 C0 10.05 0 5.1 0 0 Z " fill="#FFFFFF" transform="translate(150,165)"/>
<path d="M0 0 C4.95 0 9.9 0 15 0 C15 4.95 15 9.9 15 15 C10.05 15 5.1 15 0 15 C0 10.05 0 5.1 0 0 Z " fill="#EEEEEE" transform="translate(135,165)"/>
<path d="M0 0 C4.95 0 9.9 0 15 0 C15 4.95 15 9.9 15 15 C10.05 15 5.1 15 0 15 C0 10.05 0 5.1 0 0 Z " fill="#FFFFFF" transform="translate(120,165)"/>
<path d="M0 0 C4.95 0 9.9 0 15 0 C15 4.95 15 9.9 15 15 C10.05 15 5.1 15 0 15 C0 10.05 0 5.1 0 0 Z " fill="#FFFFFF" transform="translate(345,150)"/>
<path d="M0 0 C4.95 0 9.9 0 15 0 C15 4.95 15 9.9 15 15 C10.05 15 5.1 15 0 15 C0 10.05 0 5.1 0 0 Z " fill="#EEEEEE" transform="translate(330,150)"/>
<path d="M0 0 C4.95 0 9.9 0 15 0 C15 4.95 15 9.9 15 15 C10.05 15 5.1 15 0 15 C0 10.05 0 5.1 0 0 Z " fill="#FFFFFF" transform="translate(315,150)"/>
<path d="M0 0 C4.95 0 9.9 0 15 0 C15 4.95 15 9.9 15 15 C10.05 15 5.1 15 0 15 C0 10.05 0 5.1 0 0 Z " fill="#EEEEEE" transform="translate(300,150)"/>
<path d="M0 0 C4.95 0 9.9 0 15 0 C15 4.95 15 9.9 15 15 C10.05 15 5.1 15 0 15 C0 10.05 0 5.1 0 0 Z " fill="#FFFFFF" transform="translate(285,150)"/>
<path d="M0 0 C4.95 0 9.9 0 15 0 C15 4.95 15 9.9 15 15 C10.05 15 5.1 15 0 15 C0 10.05 0 5.1 0 0 Z " fill="#FFFFFF" transform="translate(195,150)"/>
<path d="M0 0 C4.95 0 9.9 0 15 0 C15 4.95 15 9.9 15 15 C10.05 15 5.1 15 0 15 C0 10.05 0 5.1 0 0 Z " fill="#EEEEEE" transform="translate(180,150)"/>
<path d="M0 0 C4.95 0 9.9 0 15 0 C15 4.95 15 9.9 15 15 C10.05 15 5.1 15 0 15 C0 10.05 0 5.1 0 0 Z " fill="#FFFFFF" transform="translate(165,150)"/>
<path d="M0 0 C4.95 0 9.9 0 15 0 C15 4.95 15 9.9 15 15 C10.05 15 5.1 15 0 15 C0 10.05 0 5.1 0 0 Z " fill="#EEEEEE" transform="translate(150,150)"/>
<path d="M0 0 C4.95 0 9.9 0 15 0 C15 4.95 15 9.9 15 15 C10.05 15 5.1 15 0 15 C0 10.05 0 5.1 0 0 Z " fill="#FFFFFF" transform="translate(135,150)"/>
<path d="M0 0 C4.95 0 9.9 0 15 0 C15 4.95 15 9.9 15 15 C10.05 15 5.1 15 0 15 C0 10.05 0 5.1 0 0 Z " fill="#EEEEEE" transform="translate(120,150)"/>
<path d="M0 0 C4.95 0 9.9 0 15 0 C15 4.95 15 9.9 15 15 C10.05 15 5.1 15 0 15 C0 10.05 0 5.1 0 0 Z " fill="#FFFFFF" transform="translate(105,150)"/>
<path d="M0 0 C4.95 0 9.9 0 15 0 C15 4.95 15 9.9 15 15 C10.05 15 5.1 15 0 15 C0 10.05 0 5.1 0 0 Z " fill="#EEEEEE" transform="translate(345,135)"/>
<path d="M0 0 C4.95 0 9.9 0 15 0 C15 4.95 15 9.9 15 15 C10.05 15 5.1 15 0 15 C0 10.05 0 5.1 0 0 Z " fill="#FFFFFF" transform="translate(330,135)"/>
<path d="M0 0 C4.95 0 9.9 0 15 0 C15 4.95 15 9.9 15 15 C10.05 15 5.1 15 0 15 C0 10.05 0 5.1 0 0 Z " fill="#FFFFFF" transform="translate(300,135)"/>
<path d="M0 0 C4.95 0 9.9 0 15 0 C15 4.95 15 9.9 15 15 C10.05 15 5.1 15 0 15 C0 10.05 0 5.1 0 0 Z " fill="#FFFFFF" transform="translate(210,135)"/>
<path d="M0 0 C4.95 0 9.9 0 15 0 C15 4.95 15 9.9 15 15 C10.05 15 5.1 15 0 15 C0 10.05 0 5.1 0 0 Z " fill="#FFFFFF" transform="translate(180,135)"/>
<path d="M0 0 C4.95 0 9.9 0 15 0 C15 4.95 15 9.9 15 15 C10.05 15 5.1 15 0 15 C0 10.05 0 5.1 0 0 Z " fill="#EEEEEE" transform="translate(165,135)"/>
<path d="M0 0 C4.95 0 9.9 0 15 0 C15 4.95 15 9.9 15 15 C10.05 15 5.1 15 0 15 C0 10.05 0 5.1 0 0 Z " fill="#FFFFFF" transform="translate(150,135)"/>
<path d="M0 0 C4.95 0 9.9 0 15 0 C15 4.95 15 9.9 15 15 C10.05 15 5.1 15 0 15 C0 10.05 0 5.1 0 0 Z " fill="#FFFFFF" transform="translate(120,135)"/>
<path d="M0 0 C4.95 0 9.9 0 15 0 C15 4.95 15 9.9 15 15 C10.05 15 5.1 15 0 15 C0 10.05 0 5.1 0 0 Z " fill="#FFFFFF" transform="translate(345,120)"/>
<path d="M0 0 C4.95 0 9.9 0 15 0 C15 4.95 15 9.9 15 15 C10.05 15 5.1 15 0 15 C0 10.05 0 5.1 0 0 Z " fill="#EEEEEE" transform="translate(330,120)"/>
<path d="M0 0 C4.95 0 9.9 0 15 0 C15 4.95 15 9.9 15 15 C10.05 15 5.1 15 0 15 C0 10.05 0 5.1 0 0 Z " fill="#FFFFFF" transform="translate(315,120)"/>
<path d="M0 0 C4.95 0 9.9 0 15 0 C15 4.95 15 9.9 15 15 C10.05 15 5.1 15 0 15 C0 10.05 0 5.1 0 0 Z " fill="#EEEEEE" transform="translate(210,120)"/>
<path d="M0 0 C4.95 0 9.9 0 15 0 C15 4.95 15 9.9 15 15 C10.05 15 5.1 15 0 15 C0 10.05 0 5.1 0 0 Z " fill="#FFFFFF" transform="translate(195,120)"/>
<path d="M0 0 C4.95 0 9.9 0 15 0 C15 4.95 15 9.9 15 15 C10.05 15 5.1 15 0 15 C0 10.05 0 5.1 0 0 Z " fill="#FFFFFF" transform="translate(165,120)"/>
<path d="M0 0 C4.95 0 9.9 0 15 0 C15 4.95 15 9.9 15 15 C10.05 15 5.1 15 0 15 C0 10.05 0 5.1 0 0 Z " fill="#EEEEEE" transform="translate(150,120)"/>
<path d="M0 0 C4.95 0 9.9 0 15 0 C15 4.95 15 9.9 15 15 C10.05 15 5.1 15 0 15 C0 10.05 0 5.1 0 0 Z " fill="#FFFFFF" transform="translate(135,120)"/>
<path d="M0 0 C4.95 0 9.9 0 15 0 C15 4.95 15 9.9 15 15 C10.05 15 5.1 15 0 15 C0 10.05 0 5.1 0 0 Z " fill="#EEEEEE" transform="translate(345,105)"/>
<path d="M0 0 C4.95 0 9.9 0 15 0 C15 4.95 15 9.9 15 15 C10.05 15 5.1 15 0 15 C0 10.05 0 5.1 0 0 Z " fill="#FFFFFF" transform="translate(330,105)"/>
<path d="M0 0 C4.95 0 9.9 0 15 0 C15 4.95 15 9.9 15 15 C10.05 15 5.1 15 0 15 C0 10.05 0 5.1 0 0 Z " fill="#FFFFFF" transform="translate(150,105)"/>
<path d="M0 0 C4.95 0 9.9 0 15 0 C15 4.95 15 9.9 15 15 C10.05 15 5.1 15 0 15 C0 10.05 0 5.1 0 0 Z " fill="#EEEEEE" transform="translate(135,105)"/>
<path d="M0 0 C4.95 0 9.9 0 15 0 C15 4.95 15 9.9 15 15 C10.05 15 5.1 15 0 15 C0 10.05 0 5.1 0 0 Z " fill="#FFFFFF" transform="translate(345,90)"/>
<path d="M0 0 C4.95 0 9.9 0 15 0 C15 4.95 15 9.9 15 15 C10.05 15 5.1 15 0 15 C0 10.05 0 5.1 0 0 Z " fill="#FFFFFF" transform="translate(135,90)"/>
<path d="M0 0 C4.95 0 9.9 0 15 0 C15 4.95 15 9.9 15 15 C10.05 15 5.1 15 0 15 C0 10.05 0 5.1 0 0 Z " fill="#EEEEEE" transform="translate(345,75)"/>
<path d="M0 0 C4.95 0 9.9 0 15 0 C15 4.95 15 9.9 15 15 C10.05 15 5.1 15 0 15 C0 10.05 0 5.1 0 0 Z " fill="#FFFFFF" transform="translate(330,75)"/>
<path d="M0 0 C4.95 0 9.9 0 15 0 C15 4.95 15 9.9 15 15 C10.05 15 5.1 15 0 15 C0 10.05 0 5.1 0 0 Z " fill="#EEEEEE" transform="translate(135,75)"/>
<path d="M0 0 C4.95 0 9.9 0 15 0 C15 4.95 15 9.9 15 15 C10.05 15 5.1 15 0 15 C0 10.05 0 5.1 0 0 Z " fill="#FFFFFF" transform="translate(120,75)"/>
<path d="M0 0 C4.95 0 9.9 0 15 0 C15 4.95 15 9.9 15 15 C10.05 15 5.1 15 0 15 C0 10.05 0 5.1 0 0 Z " fill="#EEEEEE" transform="translate(105,75)"/>
<path d="M0 0 C4.95 0 9.9 0 15 0 C15 4.95 15 9.9 15 15 C10.05 15 5.1 15 0 15 C0 10.05 0 5.1 0 0 Z " fill="#FFFFFF" transform="translate(90,75)"/>
<path d="M0 0 C4.95 0 9.9 0 15 0 C15 4.95 15 9.9 15 15 C10.05 15 5.1 15 0 15 C0 10.05 0 5.1 0 0 Z " fill="#EEEEEE" transform="translate(75,75)"/>
<path d="M0 0 C4.95 0 9.9 0 15 0 C15 4.95 15 9.9 15 15 C10.05 15 5.1 15 0 15 C0 10.05 0 5.1 0 0 Z " fill="#FFFFFF" transform="translate(60,75)"/>
<path d="M0 0 C4.95 0 9.9 0 15 0 C15 4.95 15 9.9 15 15 C10.05 15 5.1 15 0 15 C0 10.05 0 5.1 0 0 Z " fill="#EEEEEE" transform="translate(45,75)"/>
<path d="M0 0 C4.95 0 9.9 0 15 0 C15 4.95 15 9.9 15 15 C10.05 15 5.1 15 0 15 C0 10.05 0 5.1 0 0 Z " fill="#FFFFFF" transform="translate(30,75)"/>
<path d="M0 0 C4.95 0 9.9 0 15 0 C15 4.95 15 9.9 15 15 C10.05 15 5.1 15 0 15 C0 10.05 0 5.1 0 0 Z " fill="#EEEEEE" transform="translate(15,75)"/>
<path d="M0 0 C4.95 0 9.9 0 15 0 C15 4.95 15 9.9 15 15 C10.05 15 5.1 15 0 15 C0 10.05 0 5.1 0 0 Z " fill="#FFFFFF" transform="translate(0,75)"/>
<path d="M0 0 C4.95 0 9.9 0 15 0 C15 4.95 15 9.9 15 15 C10.05 15 5.1 15 0 15 C0 10.05 0 5.1 0 0 Z " fill="#FFFFFF" transform="translate(345,60)"/>
<path d="M0 0 C4.95 0 9.9 0 15 0 C15 4.95 15 9.9 15 15 C10.05 15 5.1 15 0 15 C0 10.05 0 5.1 0 0 Z " fill="#EEEEEE" transform="translate(330,60)"/>
<path d="M0 0 C4.95 0 9.9 0 15 0 C15 4.95 15 9.9 15 15 C10.05 15 5.1 15 0 15 C0 10.05 0 5.1 0 0 Z " fill="#FFFFFF" transform="translate(315,60)"/>
<path d="M0 0 C4.95 0 9.9 0 15 0 C15 4.95 15 9.9 15 15 C10.05 15 5.1 15 0 15 C0 10.05 0 5.1 0 0 Z " fill="#EEEEEE" transform="translate(150,60)"/>
<path d="M0 0 C4.95 0 9.9 0 15 0 C15 4.95 15 9.9 15 15 C10.05 15 5.1 15 0 15 C0 10.05 0 5.1 0 0 Z " fill="#FFFFFF" transform="translate(135,60)"/>
<path d="M0 0 C4.95 0 9.9 0 15 0 C15 4.95 15 9.9 15 15 C10.05 15 5.1 15 0 15 C0 10.05 0 5.1 0 0 Z " fill="#EEEEEE" transform="translate(120,60)"/>
<path d="M0 0 C4.95 0 9.9 0 15 0 C15 4.95 15 9.9 15 15 C10.05 15 5.1 15 0 15 C0 10.05 0 5.1 0 0 Z " fill="#FFFFFF" transform="translate(105,60)"/>
<path d="M0 0 C4.95 0 9.9 0 15 0 C15 4.95 15 9.9 15 15 C10.05 15 5.1 15 0 15 C0 10.05 0 5.1 0 0 Z " fill="#EEEEEE" transform="translate(90,60)"/>
<path d="M0 0 C4.95 0 9.9 0 15 0 C15 4.95 15 9.9 15 15 C10.05 15 5.1 15 0 15 C0 10.05 0 5.1 0 0 Z " fill="#FFFFFF" transform="translate(75,60)"/>
<path d="M0 0 C4.95 0 9.9 0 15 0 C15 4.95 15 9.9 15 15 C10.05 15 5.1 15 0 15 C0 10.05 0 5.1 0 0 Z " fill="#EEEEEE" transform="translate(60,60)"/>
<path d="M0 0 C4.95 0 9.9 0 15 0 C15 4.95 15 9.9 15 15 C10.05 15 5.1 15 0 15 C0 10.05 0 5.1 0 0 Z " fill="#FFFFFF" transform="translate(45,60)"/>
<path d="M0 0 C4.95 0 9.9 0 15 0 C15 4.95 15 9.9 15 15 C10.05 15 5.1 15 0 15 C0 10.05 0 5.1 0 0 Z " fill="#EEEEEE" transform="translate(30,60)"/>
<path d="M0 0 C4.95 0 9.9 0 15 0 C15 4.95 15 9.9 15 15 C10.05 15 5.1 15 0 15 C0 10.05 0 5.1 0 0 Z " fill="#FFFFFF" transform="translate(15,60)"/>
<path d="M0 0 C4.95 0 9.9 0 15 0 C15 4.95 15 9.9 15 15 C10.05 15 5.1 15 0 15 C0 10.05 0 5.1 0 0 Z " fill="#EEEEEE" transform="translate(0,60)"/>
<path d="M0 0 C4.95 0 9.9 0 15 0 C15 4.95 15 9.9 15 15 C10.05 15 5.1 15 0 15 C0 10.05 0 5.1 0 0 Z " fill="#EEEEEE" transform="translate(345,45)"/>
<path d="M0 0 C4.95 0 9.9 0 15 0 C15 4.95 15 9.9 15 15 C10.05 15 5.1 15 0 15 C0 10.05 0 5.1 0 0 Z " fill="#FFFFFF" transform="translate(330,45)"/>
<path d="M0 0 C4.95 0 9.9 0 15 0 C15 4.95 15 9.9 15 15 C10.05 15 5.1 15 0 15 C0 10.05 0 5.1 0 0 Z " fill="#EEEEEE" transform="translate(315,45)"/>
<path d="M0 0 C4.95 0 9.9 0 15 0 C15 4.95 15 9.9 15 15 C10.05 15 5.1 15 0 15 C0 10.05 0 5.1 0 0 Z " fill="#FFFFFF" transform="translate(300,45)"/>
<path d="M0 0 C4.95 0 9.9 0 15 0 C15 4.95 15 9.9 15 15 C10.05 15 5.1 15 0 15 C0 10.05 0 5.1 0 0 Z " fill="#FFFFFF" transform="translate(150,45)"/>
<path d="M0 0 C4.95 0 9.9 0 15 0 C15 4.95 15 9.9 15 15 C10.05 15 5.1 15 0 15 C0 10.05 0 5.1 0 0 Z " fill="#EEEEEE" transform="translate(135,45)"/>
<path d="M0 0 C4.95 0 9.9 0 15 0 C15 4.95 15 9.9 15 15 C10.05 15 5.1 15 0 15 C0 10.05 0 5.1 0 0 Z " fill="#FFFFFF" transform="translate(120,45)"/>
<path d="M0 0 C4.95 0 9.9 0 15 0 C15 4.95 15 9.9 15 15 C10.05 15 5.1 15 0 15 C0 10.05 0 5.1 0 0 Z " fill="#EEEEEE" transform="translate(105,45)"/>
<path d="M0 0 C4.95 0 9.9 0 15 0 C15 4.95 15 9.9 15 15 C10.05 15 5.1 15 0 15 C0 10.05 0 5.1 0 0 Z " fill="#FFFFFF" transform="translate(90,45)"/>
<path d="M0 0 C4.95 0 9.9 0 15 0 C15 4.95 15 9.9 15 15 C10.05 15 5.1 15 0 15 C0 10.05 0 5.1 0 0 Z " fill="#EEEEEE" transform="translate(75,45)"/>
<path d="M0 0 C4.95 0 9.9 0 15 0 C15 4.95 15 9.9 15 15 C10.05 15 5.1 15 0 15 C0 10.05 0 5.1 0 0 Z " fill="#FFFFFF" transform="translate(60,45)"/>
<path d="M0 0 C4.95 0 9.9 0 15 0 C15 4.95 15 9.9 15 15 C10.05 15 5.1 15 0 15 C0 10.05 0 5.1 0 0 Z " fill="#EEEEEE" transform="translate(45,45)"/>
<path d="M0 0 C4.95 0 9.9 0 15 0 C15 4.95 15 9.9 15 15 C10.05 15 5.1 15 0 15 C0 10.05 0 5.1 0 0 Z " fill="#FFFFFF" transform="translate(30,45)"/>
<path d="M0 0 C4.95 0 9.9 0 15 0 C15 4.95 15 9.9 15 15 C10.05 15 5.1 15 0 15 C0 10.05 0 5.1 0 0 Z " fill="#EEEEEE" transform="translate(15,45)"/>
<path d="M0 0 C4.95 0 9.9 0 15 0 C15 4.95 15 9.9 15 15 C10.05 15 5.1 15 0 15 C0 10.05 0 5.1 0 0 Z " fill="#FFFFFF" transform="translate(0,45)"/>
<path d="M0 0 C4.95 0 9.9 0 15 0 C15 4.95 15 9.9 15 15 C10.05 15 5.1 15 0 15 C0 10.05 0 5.1 0 0 Z " fill="#FFFFFF" transform="translate(345,30)"/>
<path d="M0 0 C4.95 0 9.9 0 15 0 C15 4.95 15 9.9 15 15 C10.05 15 5.1 15 0 15 C0 10.05 0 5.1 0 0 Z " fill="#EEEEEE" transform="translate(330,30)"/>
<path d="M0 0 C4.95 0 9.9 0 15 0 C15 4.95 15 9.9 15 15 C10.05 15 5.1 15 0 15 C0 10.05 0 5.1 0 0 Z " fill="#FFFFFF" transform="translate(315,30)"/>
<path d="M0 0 C4.95 0 9.9 0 15 0 C15 4.95 15 9.9 15 15 C10.05 15 5.1 15 0 15 C0 10.05 0 5.1 0 0 Z " fill="#EEEEEE" transform="translate(300,30)"/>
<path d="M0 0 C4.95 0 9.9 0 15 0 C15 4.95 15 9.9 15 15 C10.05 15 5.1 15 0 15 C0 10.05 0 5.1 0 0 Z " fill="#FFFFFF" transform="translate(285,30)"/>
<path d="M0 0 C4.95 0 9.9 0 15 0 C15 4.95 15 9.9 15 15 C10.05 15 5.1 15 0 15 C0 10.05 0 5.1 0 0 Z " fill="#FFFFFF" transform="translate(135,30)"/>
<path d="M0 0 C4.95 0 9.9 0 15 0 C15 4.95 15 9.9 15 15 C10.05 15 5.1 15 0 15 C0 10.05 0 5.1 0 0 Z " fill="#EEEEEE" transform="translate(120,30)"/>
<path d="M0 0 C4.95 0 9.9 0 15 0 C15 4.95 15 9.9 15 15 C10.05 15 5.1 15 0 15 C0 10.05 0 5.1 0 0 Z " fill="#FFFFFF" transform="translate(105,30)"/>
<path d="M0 0 C4.95 0 9.9 0 15 0 C15 4.95 15 9.9 15 15 C10.05 15 5.1 15 0 15 C0 10.05 0 5.1 0 0 Z " fill="#EEEEEE" transform="translate(90,30)"/>
<path d="M0 0 C4.95 0 9.9 0 15 0 C15 4.95 15 9.9 15 15 C10.05 15 5.1 15 0 15 C0 10.05 0 5.1 0 0 Z " fill="#FFFFFF" transform="translate(75,30)"/>
<path d="M0 0 C4.95 0 9.9 0 15 0 C15 4.95 15 9.9 15 15 C10.05 15 5.1 15 0 15 C0 10.05 0 5.1 0 0 Z " fill="#EEEEEE" transform="translate(60,30)"/>
<path d="M0 0 C4.95 0 9.9 0 15 0 C15 4.95 15 9.9 15 15 C10.05 15 5.1 15 0 15 C0 10.05 0 5.1 0 0 Z " fill="#FFFFFF" transform="translate(45,30)"/>
<path d="M0 0 C4.95 0 9.9 0 15 0 C15 4.95 15 9.9 15 15 C10.05 15 5.1 15 0 15 C0 10.05 0 5.1 0 0 Z " fill="#EEEEEE" transform="translate(30,30)"/>
<path d="M0 0 C4.95 0 9.9 0 15 0 C15 4.95 15 9.9 15 15 C10.05 15 5.1 15 0 15 C0 10.05 0 5.1 0 0 Z " fill="#FFFFFF" transform="translate(15,30)"/>
<path d="M0 0 C4.95 0 9.9 0 15 0 C15 4.95 15 9.9 15 15 C10.05 15 5.1 15 0 15 C0 10.05 0 5.1 0 0 Z " fill="#EEEEEE" transform="translate(0,30)"/>
<path d="M0 0 C4.95 0 9.9 0 15 0 C15 4.95 15 9.9 15 15 C10.05 15 5.1 15 0 15 C0 10.05 0 5.1 0 0 Z " fill="#EEEEEE" transform="translate(345,15)"/>
<path d="M0 0 C4.95 0 9.9 0 15 0 C15 4.95 15 9.9 15 15 C10.05 15 5.1 15 0 15 C0 10.05 0 5.1 0 0 Z " fill="#FFFFFF" transform="translate(330,15)"/>
<path d="M0 0 C4.95 0 9.9 0 15 0 C15 4.95 15 9.9 15 15 C10.05 15 5.1 15 0 15 C0 10.05 0 5.1 0 0 Z " fill="#EEEEEE" transform="translate(315,15)"/>
<path d="M0 0 C4.95 0 9.9 0 15 0 C15 4.95 15 9.9 15 15 C10.05 15 5.1 15 0 15 C0 10.05 0 5.1 0 0 Z " fill="#FFFFFF" transform="translate(300,15)"/>
<path d="M0 0 C4.95 0 9.9 0 15 0 C15 4.95 15 9.9 15 15 C10.05 15 5.1 15 0 15 C0 10.05 0 5.1 0 0 Z " fill="#EEEEEE" transform="translate(285,15)"/>
<path d="M0 0 C4.95 0 9.9 0 15 0 C15 4.95 15 9.9 15 15 C10.05 15 5.1 15 0 15 C0 10.05 0 5.1 0 0 Z " fill="#FFFFFF" transform="translate(270,15)"/>
<path d="M0 0 C4.95 0 9.9 0 15 0 C15 4.95 15 9.9 15 15 C10.05 15 5.1 15 0 15 C0 10.05 0 5.1 0 0 Z " fill="#FFFFFF" transform="translate(150,15)"/>
<path d="M0 0 C4.95 0 9.9 0 15 0 C15 4.95 15 9.9 15 15 C10.05 15 5.1 15 0 15 C0 10.05 0 5.1 0 0 Z " fill="#EEEEEE" transform="translate(135,15)"/>
<path d="M0 0 C4.95 0 9.9 0 15 0 C15 4.95 15 9.9 15 15 C10.05 15 5.1 15 0 15 C0 10.05 0 5.1 0 0 Z " fill="#FFFFFF" transform="translate(120,15)"/>
<path d="M0 0 C4.95 0 9.9 0 15 0 C15 4.95 15 9.9 15 15 C10.05 15 5.1 15 0 15 C0 10.05 0 5.1 0 0 Z " fill="#EEEEEE" transform="translate(105,15)"/>
<path d="M0 0 C4.95 0 9.9 0 15 0 C15 4.95 15 9.9 15 15 C10.05 15 5.1 15 0 15 C0 10.05 0 5.1 0 0 Z " fill="#FFFFFF" transform="translate(90,15)"/>
<path d="M0 0 C4.95 0 9.9 0 15 0 C15 4.95 15 9.9 15 15 C10.05 15 5.1 15 0 15 C0 10.05 0 5.1 0 0 Z " fill="#EEEEEE" transform="translate(75,15)"/>
<path d="M0 0 C4.95 0 9.9 0 15 0 C15 4.95 15 9.9 15 15 C10.05 15 5.1 15 0 15 C0 10.05 0 5.1 0 0 Z " fill="#FFFFFF" transform="translate(60,15)"/>
<path d="M0 0 C4.95 0 9.9 0 15 0 C15 4.95 15 9.9 15 15 C10.05 15 5.1 15 0 15 C0 10.05 0 5.1 0 0 Z " fill="#EEEEEE" transform="translate(45,15)"/>
<path d="M0 0 C4.95 0 9.9 0 15 0 C15 4.95 15 9.9 15 15 C10.05 15 5.1 15 0 15 C0 10.05 0 5.1 0 0 Z " fill="#FFFFFF" transform="translate(30,15)"/>
<path d="M0 0 C4.95 0 9.9 0 15 0 C15 4.95 15 9.9 15 15 C10.05 15 5.1 15 0 15 C0 10.05 0 5.1 0 0 Z " fill="#EEEEEE" transform="translate(15,15)"/>
<path d="M0 0 C4.95 0 9.9 0 15 0 C15 4.95 15 9.9 15 15 C10.05 15 5.1 15 0 15 C0 10.05 0 5.1 0 0 Z " fill="#FFFFFF" transform="translate(0,15)"/>
<path d="M0 0 C4.95 0 9.9 0 15 0 C15 4.95 15 9.9 15 15 C10.05 15 5.1 15 0 15 C0 10.05 0 5.1 0 0 Z " fill="#FFFFFF" transform="translate(345,0)"/>
<path d="M0 0 C4.95 0 9.9 0 15 0 C15 4.95 15 9.9 15 15 C10.05 15 5.1 15 0 15 C0 10.05 0 5.1 0 0 Z " fill="#EEEEEE" transform="translate(330,0)"/>
<path d="M0 0 C4.95 0 9.9 0 15 0 C15 4.95 15 9.9 15 15 C10.05 15 5.1 15 0 15 C0 10.05 0 5.1 0 0 Z " fill="#FFFFFF" transform="translate(315,0)"/>
<path d="M0 0 C4.95 0 9.9 0 15 0 C15 4.95 15 9.9 15 15 C10.05 15 5.1 15 0 15 C0 10.05 0 5.1 0 0 Z " fill="#EEEEEE" transform="translate(300,0)"/>
<path d="M0 0 C4.95 0 9.9 0 15 0 C15 4.95 15 9.9 15 15 C10.05 15 5.1 15 0 15 C0 10.05 0 5.1 0 0 Z " fill="#FFFFFF" transform="translate(285,0)"/>
<path d="M0 0 C4.95 0 9.9 0 15 0 C15 4.95 15 9.9 15 15 C10.05 15 5.1 15 0 15 C0 10.05 0 5.1 0 0 Z " fill="#FFFFFF" transform="translate(255,0)"/>
<path d="M0 0 C4.95 0 9.9 0 15 0 C15 4.95 15 9.9 15 15 C10.05 15 5.1 15 0 15 C0 10.05 0 5.1 0 0 Z " fill="#EEEEEE" transform="translate(210,0)"/>
<path d="M0 0 C4.95 0 9.9 0 15 0 C15 4.95 15 9.9 15 15 C10.05 15 5.1 15 0 15 C0 10.05 0 5.1 0 0 Z " fill="#FFFFFF" transform="translate(195,0)"/>
<path d="M0 0 C4.95 0 9.9 0 15 0 C15 4.95 15 9.9 15 15 C10.05 15 5.1 15 0 15 C0 10.05 0 5.1 0 0 Z " fill="#FFFFFF" transform="translate(165,0)"/>
<path d="M0 0 C4.95 0 9.9 0 15 0 C15 4.95 15 9.9 15 15 C10.05 15 5.1 15 0 15 C0 10.05 0 5.1 0 0 Z " fill="#EEEEEE" transform="translate(150,0)"/>
<path d="M0 0 C4.95 0 9.9 0 15 0 C15 4.95 15 9.9 15 15 C10.05 15 5.1 15 0 15 C0 10.05 0 5.1 0 0 Z " fill="#FFFFFF" transform="translate(135,0)"/>
<path d="M0 0 C4.95 0 9.9 0 15 0 C15 4.95 15 9.9 15 15 C10.05 15 5.1 15 0 15 C0 10.05 0 5.1 0 0 Z " fill="#EEEEEE" transform="translate(120,0)"/>
<path d="M0 0 C4.95 0 9.9 0 15 0 C15 4.95 15 9.9 15 15 C10.05 15 5.1 15 0 15 C0 10.05 0 5.1 0 0 Z " fill="#FFFFFF" transform="translate(105,0)"/>
<path d="M0 0 C4.95 0 9.9 0 15 0 C15 4.95 15 9.9 15 15 C10.05 15 5.1 15 0 15 C0 10.05 0 5.1 0 0 Z " fill="#EEEEEE" transform="translate(90,0)"/>
<path d="M0 0 C4.95 0 9.9 0 15 0 C15 4.95 15 9.9 15 15 C10.05 15 5.1 15 0 15 C0 10.05 0 5.1 0 0 Z " fill="#FFFFFF" transform="translate(75,0)"/>
<path d="M0 0 C4.95 0 9.9 0 15 0 C15 4.95 15 9.9 15 15 C10.05 15 5.1 15 0 15 C0 10.05 0 5.1 0 0 Z " fill="#EEEEEE" transform="translate(60,0)"/>
<path d="M0 0 C4.95 0 9.9 0 15 0 C15 4.95 15 9.9 15 15 C10.05 15 5.1 15 0 15 C0 10.05 0 5.1 0 0 Z " fill="#FFFFFF" transform="translate(45,0)"/>
<path d="M0 0 C4.95 0 9.9 0 15 0 C15 4.95 15 9.9 15 15 C10.05 15 5.1 15 0 15 C0 10.05 0 5.1 0 0 Z " fill="#EEEEEE" transform="translate(30,0)"/>
<path d="M0 0 C4.95 0 9.9 0 15 0 C15 4.95 15 9.9 15 15 C10.05 15 5.1 15 0 15 C0 10.05 0 5.1 0 0 Z " fill="#EEEEEE" transform="translate(0,0)"/>
<path d="M0 0 C3.63 0 7.26 0 11 0 C10.34 1.32 9.68 2.64 9 4 C5.53977322 11.43307975 5.83805149 17.03531091 7.6875 24.9375 C8 27 8 27 6 30 C4.02 30 2.04 30 0 30 C0 20.1 0 10.2 0 0 Z " fill="#FBFBFB" transform="translate(180,195)"/>
<path d="M0 0 C2.31 0 4.62 0 7 0 C7 4.95 7 9.9 7 15 C2.05 15 -2.9 15 -8 15 C-8.125 5.25 -8.125 5.25 -7 3 C-5.33499557 2.65846063 -3.66821323 2.32550502 -2 2 C-1.34 1.34 -0.68 0.68 0 0 Z " fill="#EEEEEE" transform="translate(263,345)"/>
<path d="M0 0 C2.64 0 5.28 0 8 0 C8.33 2.31 8.66 4.62 9 7 C23.19 7.33 37.38 7.66 52 8 C52 8.33 52 8.66 52 9 C39.79 9.33 27.58 9.66 15 10 C15 11.65 15 13.3 15 15 C10.05 15 5.1 15 0 15 C0 10.05 0 5.1 0 0 Z " fill="#D5D5D5" transform="translate(0,210)"/>
<path d="M0 0 C4.95 0 9.9 0 15 0 C15 6.03998005 14.36970072 8.99555802 10.6875 13.6640625 C8.45606955 15.4306116 7.12040786 15.30958295 4.3125 15.1875 C2.889375 15.125625 1.46625 15.06375 0 15 C0 10.05 0 5.1 0 0 Z " fill="#EDEDED" transform="translate(0,90)"/>
<path d="M0 0 C4.95 0 9.9 0 15 0 C15.22786458 2.79947917 15.45572917 5.59895833 15.68359375 8.3984375 C15.84965626 10.97927613 15.84965626 10.97927613 17 13 C15.97519531 12.98839844 14.95039063 12.97679687 13.89453125 12.96484375 C12.533856 12.95545978 11.17317876 12.94636023 9.8125 12.9375 C9.13896484 12.92912109 8.46542969 12.92074219 7.77148438 12.91210938 C4.04565869 12.89393462 0.6211958 13.10700608 -3 14 C-2.34 13.34 -1.68 12.68 -1 12 C-0.53603307 9.10776497 -0.53603307 9.10776497 -0.375 5.875 C-0.25125 3.93625 -0.1275 1.9975 0 0 Z " fill="#FAFAFA" transform="translate(195,180)"/>
<path d="M0 0 C1.65 0 3.3 0 5 0 C5.33 1.65 5.66 3.3 6 5 C8.97 5.33 11.94 5.66 15 6 C15 8.97 15 11.94 15 15 C10.05 15 5.1 15 0 15 C0 10.05 0 5.1 0 0 Z " fill="#EEEEEE" transform="translate(135,345)"/>
<path d="M0 0 C9.9 0 19.8 0 30 0 C30 0.33 30 0.66 30 1 C25.05 1 20.1 1 15 1 C15 3.97 15 6.94 15 10 C10.05 10 5.1 10 0 10 C0 6.7 0 3.4 0 0 Z " fill="#FFFFFF" transform="translate(90,350)"/>
<path d="M0 0 C0.99 0.495 0.99 0.495 2 1 C-23.66666667 26.66666667 -49.33333333 52.33333333 -75 78 C-75.99 77.67 -76.98 77.34 -78 77 C-77.50758568 76.57845611 -77.01517136 76.15691221 -76.50783539 75.72259426 C-71.70958842 71.57554873 -67.1365826 67.27579222 -62.66601562 62.77954102 C-61.98209747 62.09576889 -61.29817932 61.41199677 -60.59353638 60.70750427 C-58.36205869 58.47533697 -56.13413141 56.23966242 -53.90625 54.00390625 C-52.34848588 52.44427456 -50.79049898 50.88486536 -49.2322998 49.32566833 C-45.15309185 45.24266188 -41.07689731 41.1566601 -37.00134277 37.07000732 C-32.83345539 32.8918482 -28.66269776 28.71655638 -24.4921875 24.54101562 C-16.32532814 16.36346604 -8.16165237 8.18274623 0 0 Z " fill="#DCDCDC" transform="translate(322,105)"/>
<path d="M0 0 C0.33 0 0.66 0 1 0 C1.745468 7.78599916 0.57368893 13.56759731 -4 20 C-6.82458536 22.90960632 -9.80406867 25.50731282 -13 28 C-13.66 27.34 -14.32 26.68 -15 26 C-14.35546875 25.68417969 -13.7109375 25.36835938 -13.046875 25.04296875 C-9.89168154 21.89379665 -10.3275565 18.60983517 -10.25 14.3125 C-10.22035156 13.51521484 -10.19070312 12.71792969 -10.16015625 11.89648438 C-10.08955918 9.93153251 -10.04250292 7.96576023 -10 6 C-7.03 6 -4.06 6 -1 6 C-0.67 4.02 -0.34 2.04 0 0 Z " fill="#E9E9E9" transform="translate(235,129)"/>
<path d="M0 0 C1.65 0 3.3 0 5 0 C5.33 1.98 5.66 3.96 6 6 C6.7425 6.144375 7.485 6.28875 8.25 6.4375 C10.52027739 6.90187492 12.75759479 7.41863569 15 8 C14.938125 8.94875 14.87625 9.8975 14.8125 10.875 C14.874375 11.90625 14.93625 12.9375 15 14 C15.99 14.66 16.98 15.32 18 16 C13.05 16.495 13.05 16.495 8 17 C8 16.67 8 16.34 8 16 C5.36 15.67 2.72 15.34 0 15 C0 10.05 0 5.1 0 0 Z " fill="#E8E8E8" transform="translate(135,255)"/>
<path d="M0 0 C-0.33 3.3 -0.66 6.6 -1 10 C-5.95 10 -10.9 10 -16 10 C-16 6.7 -16 3.4 -16 0 C-13.89651926 -0.19504458 -11.79217415 -0.38078496 -9.6875 -0.5625 C-8.51574219 -0.66691406 -7.34398437 -0.77132813 -6.13671875 -0.87890625 C-3 -1 -3 -1 0 0 Z " fill="#FFFFFF" transform="translate(256,350)"/>
<path d="M0 0 C2.64 0 5.28 0 8 0 C9.57170356 9.90856593 9.57170356 9.90856593 7.625 13.625 C4.40371971 15.31233729 1.76529523 15.36059998 -1.8203125 15.58984375 C-5.22838658 16.23114801 -6.78403732 18.46747122 -9 21 C-11.1875 21.9375 -11.1875 21.9375 -13 22 C-13.66 21.34 -14.32 20.68 -15 20 C-13.948125 19.62875 -12.89625 19.2575 -11.8125 18.875 C-6.37936464 16.55436931 -3.38072804 12.35663809 -1 7 C-0.67 6.67 -0.34 6.34 0 6 C0.04080783 4.00041636 0.04254356 1.99954746 0 0 Z " fill="#E9E9E9" transform="translate(169,285)"/>
<path d="M0 0 C1.08667969 0.19464844 2.17335938 0.38929688 3.29296875 0.58984375 C4.54013672 0.82380859 4.54013672 0.82380859 5.8125 1.0625 C5.8125 4.0325 5.8125 7.0025 5.8125 10.0625 C0.8625 10.0625 -4.0875 10.0625 -9.1875 10.0625 C-9.1875 6.7625 -9.1875 3.4625 -9.1875 0.0625 C-5.61369658 -1.12876781 -3.67866698 -0.6724445 0 0 Z " fill="#EDEDED" transform="translate(24.1875,349.9375)"/>
<path d="M0 0 C2.64 0 5.28 0 8 0 C8.12117187 0.68707031 8.24234375 1.37414062 8.3671875 2.08203125 C8.53476563 2.98308594 8.70234375 3.88414062 8.875 4.8125 C9.11863281 6.15248047 9.11863281 6.15248047 9.3671875 7.51953125 C9.91188449 10.22727846 9.91188449 10.22727846 12 13 C11.67 13.66 11.34 14.32 11 15 C7.37 15 3.74 15 0 15 C0 10.05 0 5.1 0 0 Z " fill="#ECECEC" transform="translate(0,330)"/>
<path d="M0 0 C4.95 0 9.9 0 15 0 C15 2.97 15 5.94 15 9 C10.05 9 5.1 9 0 9 C0 6.03 0 3.06 0 0 Z " fill="#EEEEEE" transform="translate(225,351)"/>
<path d="M0 0 C4.95 0 9.9 0 15 0 C15 2.97 15 5.94 15 9 C10.05 9 5.1 9 0 9 C0 6.03 0 3.06 0 0 Z " fill="#EEEEEE" transform="translate(195,351)"/>
<path d="M0 0 C4.95 0 9.9 0 15 0 C15 2.97 15 5.94 15 9 C10.05 9 5.1 9 0 9 C0 6.03 0 3.06 0 0 Z " fill="#EEEEEE" transform="translate(165,351)"/>
<path d="M0 0 C4.95 0 9.9 0 15 0 C15 2.97 15 5.94 15 9 C10.05 9 5.1 9 0 9 C0 6.03 0 3.06 0 0 Z " fill="#EEEEEE" transform="translate(105,351)"/>
<path d="M0 0 C4.95 0 9.9 0 15 0 C15 2.97 15 5.94 15 9 C10.05 9 5.1 9 0 9 C0 6.03 0 3.06 0 0 Z " fill="#EEEEEE" transform="translate(75,351)"/>
<path d="M0 0 C4.95 0 9.9 0 15 0 C15 2.97 15 5.94 15 9 C10.05 9 5.1 9 0 9 C0 6.03 0 3.06 0 0 Z " fill="#EEEEEE" transform="translate(45,351)"/>
<path d="M0 0 C4.95 0 9.9 0 15 0 C15 2.31 15 4.62 15 7 C16.32 7.33 17.64 7.66 19 8 C18.67 8.66 18.34 9.32 18 10 C17.34 9.67 16.68 9.34 16 9 C13.89768123 8.90248453 11.79207377 8.87023313 9.6875 8.875 C8.55699219 8.87242188 7.42648438 8.86984375 6.26171875 8.8671875 C2.68437184 8.92787452 2.68437184 8.92787452 -2 10 C-1.34 6.7 -0.68 3.4 0 0 Z " fill="#F7F7F7" transform="translate(180,15)"/>
<path d="M0 0 C0.33 0.66 0.66 1.32 1 2 C0.69320312 2.53109375 0.38640625 3.0621875 0.0703125 3.609375 C-1.48840095 7.09088096 -1.21085927 10.51181953 -1.125 14.25 C-1.11146484 15.36761719 -1.11146484 15.36761719 -1.09765625 16.5078125 C-1.07418358 18.33868059 -1.03831525 20.16938238 -1 22 C-1.66 21.34 -2.32 20.68 -3 20 C-3 19.01 -3 18.02 -3 17 C-4.98 17 -6.96 17 -9 17 C-9 12.05 -9 7.1 -9 2 C-6.94921875 1.77213542 -4.8984375 1.54427083 -2.84765625 1.31640625 C-0.98859771 1.18113386 -0.98859771 1.18113386 0 0 Z " fill="#F6F6F6" transform="translate(174,28)"/>
<path d="M0 0 C2.64 0 5.28 0 8 0 C8 4.95 8 9.9 8 15 C5.36 15 2.72 15 0 15 C0 10.05 0 5.1 0 0 Z " fill="#EEEEEE" transform="translate(0,300)"/>
<path d="M0 0 C2.64 0 5.28 0 8 0 C8 4.95 8 9.9 8 15 C5.36 15 2.72 15 0 15 C0 10.05 0 5.1 0 0 Z " fill="#EEEEEE" transform="translate(0,270)"/>
<path d="M0 0 C2.64 0 5.28 0 8 0 C8 4.95 8 9.9 8 15 C5.36 15 2.72 15 0 15 C0 10.05 0 5.1 0 0 Z " fill="#EEEEEE" transform="translate(0,240)"/>
<path d="M0 0 C2.64 0 5.28 0 8 0 C8 4.95 8 9.9 8 15 C5.36 15 2.72 15 0 15 C0 10.05 0 5.1 0 0 Z " fill="#EEEEEE" transform="translate(0,180)"/>
<path d="M0 0 C2.64 0 5.28 0 8 0 C8 4.95 8 9.9 8 15 C5.36 15 2.72 15 0 15 C0 10.05 0 5.1 0 0 Z " fill="#EEEEEE" transform="translate(0,150)"/>
<path d="M0 0 C2.64 0 5.28 0 8 0 C8 4.95 8 9.9 8 15 C5.36 15 2.72 15 0 15 C0 10.05 0 5.1 0 0 Z " fill="#EEEEEE" transform="translate(0,120)"/>
<path d="M0 0 C0.33 0 0.66 0 1 0 C1.33 11.55 1.66 23.1 2 35 C1.34 34.67 0.68 34.34 0 34 C0 32.02 0 30.04 0 28 C-1.65 28 -3.3 28 -5 28 C-5 23.05 -5 18.1 -5 13 C-3.35 13 -1.7 13 0 13 C0 8.71 0 4.42 0 0 Z " fill="#FEFEFE" transform="translate(140,227)"/>
<path d="M0 0 C2.31 0 4.62 0 7 0 C8.48700668 2.97401336 8.00619932 5.94818926 7.87890625 9.1953125 C7.85529526 9.90275604 7.83168427 10.61019958 7.80735779 11.33908081 C7.73071166 13.60125755 7.64669188 15.86309273 7.5625 18.125 C7.50928023 19.6575353 7.45653982 21.19008734 7.40429688 22.72265625 C7.27509533 26.48198761 7.13927963 30.24102908 7 34 C6.67 34 6.34 34 6 34 C5.67 27.73 5.34 21.46 5 15 C3.35 15 1.7 15 0 15 C0 10.05 0 5.1 0 0 Z " fill="#EDEDED" transform="translate(135,225)"/>
<path d="M0 0 C2.91952568 0.01748219 5.72297885 0.13944633 8.625 0.375 C9.42679688 0.43171875 10.22859375 0.4884375 11.0546875 0.546875 C13.03715498 0.68847982 15.01869051 0.84302259 17 1 C17 2.65 17 4.3 17 6 C12.05 6 7.1 6 2 6 C1.67 7.32 1.34 8.64 1 10 C0.34 10 -0.32 10 -1 10 C-1.9765625 3.9453125 -1.9765625 3.9453125 -2 2 C-1.34 1.34 -0.68 0.68 0 0 Z " fill="#EFEFEF" transform="translate(88,219)"/>
<path d="M0 0 C3.96 0 7.92 0 12 0 C12 3 12 3 9.8125 5.48046875 C8.884375 6.37378906 7.95625 7.26710938 7 8.1875 C6.071875 9.08855469 5.14375 9.98960938 4.1875 10.91796875 C3.465625 11.60503906 2.74375 12.29210937 2 13 C1.34 12.67 0.68 12.34 0 12 C0 8.04 0 4.08 0 0 Z " fill="#EFEFEF" transform="translate(165,75)"/>
<path d="M0 0 C3.96 0 7.92 0 12 0 C12 3 12 3 9.8125 5.48046875 C8.884375 6.37378906 7.95625 7.26710938 7 8.1875 C6.071875 9.08855469 5.14375 9.98960938 4.1875 10.91796875 C3.465625 11.60503906 2.74375 12.29210938 2 13 C1.34 12.67 0.68 12.34 0 12 C0 8.04 0 4.08 0 0 Z " fill="#EFEFEF" transform="translate(225,15)"/>
<path d="M0 0 C5 1 5 1 6.1796875 2.671875 C7.55169175 6.77247196 8.54431831 9.75312466 7 14 C6.67 14.33 6.34 14.66 6 15 C4.02 15 2.04 15 0 15 C0 10.05 0 5.1 0 0 Z " fill="#EEEEEE" transform="translate(180,210)"/>
<path d="M0 0 C0.33 0 0.66 0 1 0 C0.73053516 6.46715622 -1.57921946 10.31498889 -6 15 C-7.9447819 16.56723959 -9.82205927 17.75546244 -12 19 C-12.02686553 17.02090602 -12.04633375 15.04171029 -12.0625 13.0625 C-12.07410156 11.96035156 -12.08570313 10.85820312 -12.09765625 9.72265625 C-12 7 -12 7 -11 6 C-9.48530552 5.76807135 -7.96245438 5.58784762 -6.4375 5.4375 C-5.19806641 5.31181641 -5.19806641 5.31181641 -3.93359375 5.18359375 C-2.97646484 5.09271484 -2.97646484 5.09271484 -2 5 C-1.34 3.35 -0.68 1.7 0 0 Z " fill="#F7F7F7" transform="translate(176,294)"/>
<path d="M0 0 C2.64 0 5.28 0 8 0 C9.07431019 3.32059513 9.0951988 4.7544873 7.8125 8.0625 C6.10748146 10.8258059 4.40771377 12.84136007 2 15 C0.28724607 13.28724607 0.63090968 10.96433616 0.4375 8.625 C0.35371094 7.64789063 0.26992187 6.67078125 0.18359375 5.6640625 C0.05372058 3.7795199 0 1.8890124 0 0 Z " fill="#EDEDED" transform="translate(89,240)"/>
<path d="M0 0 C0.33 0 0.66 0 1 0 C1 4.95 1 9.9 1 15 C-3.95 15 -8.9 15 -14 15 C-14 13.35 -14 11.7 -14 10 C-9.38 10 -4.76 10 0 10 C0 6.7 0 3.4 0 0 Z " fill="#EEEEEE" transform="translate(134,210)"/>
<path d="M0 0 C0.66 0.33 1.32 0.66 2 1 C3.70363822 1.22622081 5.41328701 1.40888473 7.125 1.5625 C8.03507812 1.64628906 8.94515625 1.73007813 9.8828125 1.81640625 C10.58148438 1.87699219 11.28015625 1.93757812 12 2 C11.4375 4.3125 11.4375 4.3125 10 7 C4.3 10.16666667 4.3 10.16666667 0.5625 9.6875 C0.046875 9.460625 -0.46875 9.23375 -1 9 C-1.125 2.25 -1.125 2.25 0 0 Z " fill="#EDEDED" transform="translate(76,253)"/>
<path d="M0 0 C1.98 0 3.96 0 6 0 C5.67 4.95 5.34 9.9 5 15 C3.35 15 1.7 15 0 15 C0 10.05 0 5.1 0 0 Z " fill="#EEEEEE" transform="translate(135,315)"/>
<path d="M0 0 C0.33 0 0.66 0 1 0 C1 9.9 1 19.8 1 30 C3.97 30 6.94 30 10 30 C6.68987756 33.31012244 5.46840411 33.50351065 1 34 C-1.50938361 30.23592459 -1.23596249 28.2437944 -1.1875 23.75 C-1.18105469 23.05068359 -1.17460937 22.35136719 -1.16796875 21.63085938 C-1.0642355 14.40194865 -0.57969991 7.20484172 0 0 Z " fill="#F6F6F6" transform="translate(134,240)"/>
<path d="M0 0 C0.99 0 1.98 0 3 0 C3 4.95 3 9.9 3 15 C1.35 15 -0.3 15 -2 15 C-4 12 -4 12 -3.828125 9.80859375 C-3.63734375 9.02613281 -3.4465625 8.24367187 -3.25 7.4375 C-3.06953125 6.65246094 -2.8890625 5.86742187 -2.703125 5.05859375 C-2 3 -2 3 0 1 C0 0.67 0 0.34 0 0 Z " fill="#EAEAEA" transform="translate(222,210)"/>
<path d="M0 0 C1.65 0 3.3 0 5 0 C5 4.95 5 9.9 5 15 C3.35 15 1.7 15 0 15 C0 10.05 0 5.1 0 0 Z " fill="#FFFFFF" transform="translate(265,300)"/>
<path d="M0 0 C4.95 0 9.9 0 15 0 C15 1.65 15 3.3 15 5 C10.05 5 5.1 5 0 5 C0 3.35 0 1.7 0 0 Z " fill="#EEEEEE" transform="translate(30,220)"/>
<path d="M0 0 C0 3.63 0 7.26 0 11 C-2.31 11 -4.62 11 -7 11 C-7.33 14.3 -7.66 17.6 -8 21 C-8.33 21 -8.66 21 -9 21 C-9.37186022 14.92628304 -9.04351492 10.4573371 -6 5 C-1.53191489 0 -1.53191489 0 0 0 Z " fill="#F9F9F9" transform="translate(105,139)"/>
<path d="M0 0 C4.95 0 9.9 0 15 0 C15 4.95 15 9.9 15 15 C14.67 15 14.34 15 14 15 C14 11.7 14 8.4 14 5 C7.07 4.505 7.07 4.505 0 4 C0 2.68 0 1.36 0 0 Z " fill="#EEEEEE" transform="translate(120,90)"/>
<path d="M0 0 C1.4370809 -0.05422947 2.87475462 -0.09289723 4.3125 -0.125 C5.11300781 -0.14820313 5.91351563 -0.17140625 6.73828125 -0.1953125 C9 0 9 0 12 2 C11.67 3.98 11.34 5.96 11 8 C10.34 7.67 9.68 7.34 9 7 C7.46331135 6.77532169 5.92031946 6.59203195 4.375 6.4375 C3.55773438 6.35371094 2.74046875 6.26992187 1.8984375 6.18359375 C1.27195313 6.12300781 0.64546875 6.06242188 0 6 C0 4.02 0 2.04 0 0 Z " fill="#F7F7F7" transform="translate(45,219)"/>
<path d="M0 0 C0.66 0.66 1.32 1.32 2 2 C3.98821313 2.39764263 5.98944339 2.73775349 8 3 C8.07347656 4.12148437 8.07347656 4.12148437 8.1484375 5.265625 C8.22320312 6.25046875 8.29796875 7.2353125 8.375 8.25 C8.44460937 9.22453125 8.51421875 10.1990625 8.5859375 11.203125 C8.98465249 13.89633189 9.63507063 15.66963279 11 18 C5.79168467 14.1376538 2.04434241 10.27270279 0 4 C0 2.68 0 1.36 0 0 Z " fill="#FAFAFA" transform="translate(97,162)"/>
<path d="M0 0 C1.98 0 3.96 0 6 0 C6 4.95 6 9.9 6 15 C4.68 15 3.36 15 2 15 C1.95101563 14.07316406 1.90203125 13.14632812 1.8515625 12.19140625 C1.77679688 10.99386719 1.70203125 9.79632813 1.625 8.5625 C1.55539062 7.36753906 1.48578125 6.17257813 1.4140625 4.94140625 C1.27742188 3.97074219 1.14078125 3.00007812 1 2 C0.34 1.67 -0.32 1.34 -1 1 C-0.67 0.67 -0.34 0.34 0 0 Z " fill="#EEEEEE" transform="translate(264,225)"/>
<path d="M0 0 C1.32 0 2.64 0 4 0 C4 4.95 4 9.9 4 15 C1.69 15 -0.62 15 -3 15 C-2.505 14.195625 -2.01 13.39125 -1.5 12.5625 C0.34527349 8.17997546 0.28061086 4.67684769 0 0 Z " fill="#F9F9F9" transform="translate(326,90)"/>
<path d="M0 0 C1.32 0 2.64 0 4 0 C4 4.95 4 9.9 4 15 C2.68 15 1.36 15 0 15 C0 10.05 0 5.1 0 0 Z " fill="#EEEEEE" transform="translate(266,315)"/>
<path d="M0 0 C1.32 0 2.64 0 4 0 C4 4.95 4 9.9 4 15 C2.68 15 1.36 15 0 15 C0 10.05 0 5.1 0 0 Z " fill="#EEEEEE" transform="translate(266,285)"/>
<path d="M0 0 C1.32 0 2.64 0 4 0 C4 4.95 4 9.9 4 15 C2.68 15 1.36 15 0 15 C0 10.05 0 5.1 0 0 Z " fill="#EEEEEE" transform="translate(266,255)"/>
<path d="M0 0 C4.95 0 9.9 0 15 0 C15 1.32 15 2.64 15 4 C10.05 4 5.1 4 0 4 C0 2.68 0 1.36 0 0 Z " fill="#EEEEEE" transform="translate(90,90)"/>
<path d="M0 0 C4.95 0 9.9 0 15 0 C15 1.32 15 2.64 15 4 C10.05 4 5.1 4 0 4 C0 2.68 0 1.36 0 0 Z " fill="#EEEEEE" transform="translate(60,90)"/>
<path d="M0 0 C4.95 0 9.9 0 15 0 C15 1.32 15 2.64 15 4 C10.05 4 5.1 4 0 4 C0 2.68 0 1.36 0 0 Z " fill="#EEEEEE" transform="translate(30,90)"/>
<path d="M0 0 C0 3.3 0 6.6 0 10 C-3.63 10.33 -7.26 10.66 -11 11 C-9.3217427 7.6434854 -4.40000517 0 0 0 Z " fill="#FEFEFE" transform="translate(195,110)"/>
<path d="M0 0 C0 0.33 0 0.66 0 1 C-1.65 1 -3.3 1 -5 1 C-5 2.32 -5 3.64 -5 5 C-8.3 5 -11.6 5 -15 5 C-14 2 -14 2 -12 0.8125 C-7.96195446 -0.28113733 -4.15684292 -0.16301345 0 0 Z " fill="#E7E7E7" transform="translate(125,130)"/>
<path d="M0 0 C1.65 0 3.3 0 5 0 C5 2.97 5 5.94 5 9 C5.99 9.33 6.98 9.66 8 10 C5.6875 9.875 5.6875 9.875 3 9 C0.97798569 5.79266696 0 3.80845564 0 0 Z " fill="#F4F4F4" transform="translate(205,30)"/>
<path d="M0 0 C2.97 0 5.94 0 9 0 C9 0.99 9 1.98 9 3 C9.99 3.33 10.98 3.66 12 4 C10.5629191 4.05422947 9.12524538 4.09289723 7.6875 4.125 C6.88699219 4.14820313 6.08648437 4.17140625 5.26171875 4.1953125 C3 4 3 4 0 2 C0 1.34 0 0.68 0 0 Z " fill="#F7F7F7" transform="translate(111,180)"/>
<path d="M0 0 C4.67692308 1.47692308 4.67692308 1.47692308 6.3125 4.125 C6.539375 4.74375 6.76625 5.3625 7 6 C4.69 6.33 2.38 6.66 0 7 C0 4.69 0 2.38 0 0 Z " fill="#EDEDED" transform="translate(225,113)"/>
<path d="M0 0 C3.95820859 0.56545837 6.6659053 1.80902348 10 4 C9.67 5.32 9.34 6.64 9 8 C9 7.01 9 6.02 9 5 C6.36 4.67 3.72 4.34 1 4 C0.67 2.68 0.34 1.36 0 0 Z " fill="#F3F3F3" transform="translate(179,56)"/>
<path d="M0 0 C2.31 0 4.62 0 7 0 C7 1.65 7 3.3 7 5 C4.0625 4.1875 4.0625 4.1875 1 3 C0.67 2.01 0.34 1.02 0 0 Z " fill="#EEEEEE" transform="translate(158,270)"/>
<path d="M0 0 C-1.50223584 4.20626034 -4.28550034 5.73900021 -8 8 C-8 7.01 -8 6.02 -8 5 C-2.65116279 0 -2.65116279 0 0 0 Z " fill="#E1E1E1" transform="translate(229,149)"/>
<path d="M0 0 C1.98 0 3.96 0 6 0 C5.67 1.98 5.34 3.96 5 6 C3.31237149 4.3545622 1.6459651 2.68711423 0 1 C0 0.67 0 0.34 0 0 Z " fill="#ECECEC" transform="translate(54,255)"/>
<path d="M0 0 C0.598125 0.763125 1.19625 1.52625 1.8125 2.3125 C3.46959332 4.3483575 5.10297674 6.1978279 7 8 C3.76912579 7.44295272 1.97638863 6.66812465 0 4 C0 2.68 0 1.36 0 0 Z " fill="#DFDFDF" transform="translate(173,48)"/>
</svg>
